<svg width="131" height="124" viewBox="0 0 131 124" fill="none" xmlns="http://www.w3.org/2000/svg">
<path d="M117.913 28.8922C110.93 25.3622 102.657 26.9509 95.3464 32.305C90.7535 35.6684 85.0915 36.8397 79.6737 35.5769C79.5995 35.5592 79.5252 35.5423 79.451 35.5246C72.6619 33.941 67.2145 28.64 64.6664 21.6322C62.1553 14.7262 57.8899 9.27552 52.046 6.32077C36.4832 -1.54774 15.6327 11.2463 5.47505 34.8976C-4.68257 58.5489 -0.300561 84.1002 15.2622 91.9687C23.1761 95.9693 32.4561 94.6269 41.0033 89.2315C49.094 84.1245 58.5641 82.2658 67.6956 84.4985C68.6771 84.7382 69.6587 84.9808 70.6402 85.225C76.2057 86.6109 81.2634 89.5826 85.7723 93.3848C86.8333 94.2795 87.9863 95.0503 89.2307 95.6794C101.632 101.949 118.106 92.0808 126.026 73.6383C133.947 55.1958 130.315 35.1624 117.914 28.8922H117.913Z" fill="#E0F2F1"/>
<path d="M130.815 45.7495L127.61 59.9309L113.945 56.0911L116.851 42.3013L130.815 45.7495Z" fill="#C4A867"/>
<path d="M127.61 60.1145C127.593 60.1145 127.577 60.1123 127.559 60.1079L113.894 56.2673C113.801 56.2408 113.744 56.1471 113.764 56.0527L116.67 42.2636C116.68 42.2149 116.71 42.1721 116.753 42.1456C116.795 42.119 116.847 42.1109 116.895 42.1227L130.86 45.5709C130.957 45.5952 131.018 45.6919 130.996 45.7892L127.79 59.9707C127.779 60.0201 127.748 60.0622 127.705 60.088C127.676 60.1049 127.643 60.1138 127.611 60.1138L127.61 60.1145ZM114.161 55.9605L127.472 59.7015L130.595 45.8844L116.992 42.5254L114.161 55.9605Z" fill="#070706"/>
<path d="M126.609 55.4384C126.605 55.4376 126.599 55.4361 126.594 55.4347L125.351 55.0784C125.221 55.0408 125.145 54.9051 125.183 54.7753C125.221 54.6455 125.356 54.5702 125.488 54.6078L126.732 54.9641C126.862 55.0017 126.938 55.1374 126.9 55.2672C126.864 55.3926 126.736 55.4664 126.61 55.4384H126.609Z" fill="white"/>
<path d="M121.277 52.1768C121.272 52.176 121.268 52.1746 121.263 52.1731L117.433 51.0896C117.302 51.0527 117.226 50.917 117.264 50.7872C117.301 50.6574 117.437 50.5814 117.568 50.619L121.398 51.7025C121.529 51.7394 121.605 51.8751 121.567 52.0049C121.532 52.1303 121.403 52.2048 121.276 52.1768H121.277Z" fill="white"/>
<path d="M123.829 54.6418C123.824 54.641 123.819 54.6396 123.814 54.6381L117.068 52.7056C116.937 52.668 116.861 52.5323 116.899 52.4025C116.937 52.2727 117.071 52.1967 117.204 52.2351L123.95 54.1675C124.081 54.2051 124.157 54.3408 124.119 54.4707C124.082 54.5961 123.955 54.6698 123.829 54.6418Z" fill="white"/>
<path d="M126.243 57.0603C126.239 57.0595 126.234 57.058 126.228 57.0566L122.639 56.0284C122.508 55.9908 122.432 55.8551 122.47 55.7252C122.508 55.5954 122.641 55.5195 122.775 55.5578L126.365 56.586C126.496 56.6236 126.571 56.7593 126.533 56.8891C126.497 57.0145 126.369 57.0883 126.243 57.0603Z" fill="white"/>
<path d="M120.543 55.4272C120.538 55.4265 120.533 55.425 120.528 55.4235L116.701 54.3275C116.57 54.2898 116.495 54.1541 116.532 54.0243C116.57 53.8945 116.704 53.8185 116.838 53.8569L120.664 54.9529C120.795 54.9905 120.871 55.1263 120.833 55.2561C120.796 55.3815 120.669 55.4552 120.543 55.4272Z" fill="white"/>
<path d="M124.36 46.8971C124.221 47.5115 123.607 47.8973 122.989 47.7593C122.37 47.6214 121.982 47.0114 122.121 46.397C122.26 45.7826 122.874 45.3969 123.492 45.5348C124.111 45.6727 124.499 46.2827 124.36 46.8971Z" fill="#070706"/>
<path d="M29.0242 99.137L27.3726 100.778L27.634 101.038L29.2857 99.3968L29.0242 99.137Z" fill="white"/>
<path d="M6.19626 100.885L5.93481 101.144L8.55036 103.743L8.81181 103.483L6.19626 100.885Z" fill="white"/>
<path d="M15.7491 107.267H15.3794V110.37H15.7491V107.267Z" fill="white"/>
<path d="M7.20115 84.01L6.9397 84.2698L11.1849 88.487L11.4463 88.2273L7.20115 84.01Z" fill="white"/>
<path d="M24.5568 85.1344L22.4048 87.2722L22.6662 87.5319L24.8182 85.3941L24.5568 85.1344Z" fill="white"/>
<path d="M28.2768 89.8892L28.0154 90.1489L30.1007 92.2205L30.3621 91.9608L28.2768 89.8892Z" fill="white"/>
<path d="M35.0097 75.7618L34.7483 76.0215L36.0067 77.2716L36.2682 77.0119L35.0097 75.7618Z" fill="white"/>
<path d="M32.1697 77.823L30.5779 79.4043L30.8393 79.664L32.4311 78.0827L32.1697 77.823Z" fill="white"/>
<path d="M11.974 76.6341L10.0635 78.532L10.3249 78.7917L12.2354 76.8938L11.974 76.6341Z" fill="white"/>
<path d="M37.5819 103.079H37.2122V105.378H37.5819V103.079Z" fill="white"/>
<path d="M28.7085 107.201L27.9163 107.988L28.1777 108.247L28.9699 107.46L28.7085 107.201Z" fill="white"/>
<path d="M98.6951 33.2607V35.1504" stroke="#A05839" stroke-width="2.8297" stroke-miterlimit="10" stroke-linecap="round" stroke-linejoin="round"/>
<path d="M98.0543 104.572L53.5641 99.9024C52.2647 99.7661 51.3221 98.6045 51.4587 97.3083L58.3296 32.1653C58.4662 30.8691 59.6306 29.9288 60.93 30.0651L105.42 34.7345C106.72 34.8708 107.662 36.0323 107.526 37.3285L100.655 102.472C100.518 103.768 99.3538 104.708 98.0543 104.572Z" fill="#EFCEBD"/>
<path d="M51.459 97.3081L58.3299 32.1651C58.4665 30.8689 59.6309 29.9286 60.9303 30.0649L105.421 34.7342" stroke="#563025" stroke-width="1.1251" stroke-miterlimit="10"/>
<path d="M101.184 104.327H56.4479C55.1412 104.327 54.082 103.271 54.082 101.967V36.4648C54.082 35.1613 55.1412 34.1047 56.4479 34.1047H101.184C102.49 34.1047 103.55 35.1613 103.55 36.4648V101.967C103.55 103.271 102.49 104.327 101.184 104.327Z" fill="#FBFBFB"/>
<path d="M103.549 36.4651V101.968C103.549 103.271 102.49 104.328 101.184 104.328H56.4478" stroke="#563025" stroke-width="1.1251" stroke-miterlimit="10"/>
<path d="M100 75.0002H67V76.0002H100V75.0002Z" fill="#EFCEBD"/>
<path d="M100 81H67V82H100V81Z" fill="#EFCEBD"/>
<path d="M100 86H67V87H100V86Z" fill="#EFCEBD"/>
<path d="M99.9175 92.1453H74.2549V93.1742H99.9175V92.1453Z" fill="#EFCEBD"/>
<path d="M99.9175 97.2617H74.2549V98.2906H99.9175V97.2617Z" fill="#EFCEBD"/>
<path d="M95.9625 37.7525V34.1901C95.9625 33.6939 96.3657 33.2917 96.8632 33.2917C97.3606 33.2917 97.7638 33.6939 97.7638 34.1901V38.6819C97.7638 39.5373 97.0686 40.2307 96.2111 40.2307C95.3536 40.2307 94.6584 39.5373 94.6584 38.6819V33.261C94.6584 32.149 95.5621 31.2473 96.6771 31.2473C97.7918 31.2473 98.6957 32.1488 98.6957 33.261" stroke="#A05839" stroke-width="2.8297" stroke-miterlimit="10" stroke-linecap="round" stroke-linejoin="round"/>
<path d="M49.5452 99.4977L62.9707 70.2908L64.3374 55.731L54.5295 66.4108L41.0001 95.3777L42.7562 98.1954L46.1655 99.8601L49.5452 99.4977Z" fill="#C4A867"/>
<path d="M56.2138 68.9285L59.5679 70.4705L46.1111 99.7423L42.757 98.2004L56.2138 68.9285Z" fill="#4FA7A4"/>
<path d="M59.5195 70.5514L63.0584 70.1393L64.3298 55.7275L54.5294 66.4108L56.2071 68.9611L59.5195 70.5514Z" fill="white"/>
<path d="M63.7201 62.3632L64.7048 55L59.8713 60.4941L61.2879 62.3632H63.7201Z" fill="#040D31"/>
<g opacity="0.8">
<path d="M58.991 23.9906C63.7295 23.9906 67.5709 20.1492 67.5709 15.4107C67.5709 10.6722 63.7295 6.83081 58.991 6.83081C54.2525 6.83081 50.4111 10.6722 50.4111 15.4107C50.4111 20.1492 54.2525 23.9906 58.991 23.9906Z" fill="#C4A867"/>
<mask id="mask0_197_3920" style="mask-type:luminance" maskUnits="userSpaceOnUse" x="50" y="6" width="18" height="18">
<path d="M58.991 23.9906C63.7295 23.9906 67.5709 20.1492 67.5709 15.4107C67.5709 10.6722 63.7295 6.83081 58.991 6.83081C54.2525 6.83081 50.4111 10.6722 50.4111 15.4107C50.4111 20.1492 54.2525 23.9906 58.991 23.9906Z" fill="white"/>
</mask>
<g mask="url(#mask0_197_3920)">
<path d="M61.3691 17.1281C62.3033 16.412 62.9082 15.2882 62.9082 14.0203C62.9082 11.857 61.1543 10.103 58.9909 10.103C56.8273 10.103 55.0737 11.857 55.0737 14.0203C55.0737 15.2882 55.6786 16.412 56.6128 17.1281C53.6952 18.1188 51.595 20.8787 51.595 24.1314H66.3872C66.3869 20.8787 64.2867 18.1185 61.3691 17.1281Z" fill="#563025"/>
</g>
</g>
<g opacity="0.8">
<path d="M112.58 27.1597C117.318 27.1597 121.16 23.3184 121.16 18.5799C121.16 13.8413 117.318 10 112.58 10C107.841 10 104 13.8413 104 18.5799C104 23.3184 107.841 27.1597 112.58 27.1597Z" fill="#C4A867"/>
<mask id="mask1_197_3920" style="mask-type:luminance" maskUnits="userSpaceOnUse" x="104" y="10" width="18" height="18">
<path d="M112.58 27.1597C117.318 27.1597 121.16 23.3184 121.16 18.5799C121.16 13.8413 117.318 10 112.58 10C107.841 10 104 13.8413 104 18.5799C104 23.3184 107.841 27.1597 112.58 27.1597Z" fill="white"/>
</mask>
<g mask="url(#mask1_197_3920)">
<path d="M114.958 20.2973C115.892 19.5812 116.497 18.4574 116.497 17.1895C116.497 15.0262 114.743 13.2722 112.58 13.2722C110.416 13.2722 108.663 15.0262 108.663 17.1895C108.663 18.4574 109.267 19.5812 110.202 20.2973C107.284 21.288 105.184 24.0479 105.184 27.3005H119.976C119.976 24.0479 117.876 21.2877 114.958 20.2973Z" fill="#563025"/>
</g>
</g>
<g opacity="0.8">
<path d="M86.7448 13.4897C90.4699 13.4897 93.4897 10.4699 93.4897 6.74483C93.4897 3.01976 90.4699 0 86.7448 0C83.0198 0 80 3.01976 80 6.74483C80 10.4699 83.0198 13.4897 86.7448 13.4897Z" fill="#C4A867"/>
<mask id="mask2_197_3920" style="mask-type:luminance" maskUnits="userSpaceOnUse" x="80" y="0" width="14" height="14">
<path d="M86.7448 13.4897C90.4699 13.4897 93.4897 10.4699 93.4897 6.74483C93.4897 3.01976 90.4699 0 86.7448 0C83.0198 0 80 3.01976 80 6.74483C80 10.4699 83.0198 13.4897 86.7448 13.4897Z" fill="white"/>
</mask>
<g mask="url(#mask2_197_3920)">
<path d="M88.6143 8.09511C89.3487 7.53215 89.8242 6.64869 89.8242 5.65196C89.8242 3.95133 88.4454 2.57251 86.7448 2.57251C85.0439 2.57251 83.6653 3.95133 83.6653 5.65196C83.6653 6.64869 84.1409 7.53215 84.8753 8.09511C82.5817 8.87391 80.9307 11.0435 80.9307 13.6005H92.5592C92.5589 11.0435 90.9079 8.87365 88.6143 8.09511Z" fill="#563025"/>
</g>
</g>
<path d="M40.0706 70.5386L41.6328 123.816H10.2601L11.8898 103.916C11.8898 103.916 4.45997 85.9948 5.50684 78.956C7.40829 66.1723 40.0706 70.5386 40.0706 70.5386Z" fill="#C4A867"/>
<path d="M38.6502 89.4531C38.5744 89.4531 38.5032 89.4059 38.4757 89.3306L35.142 80.0113C35.1079 79.9154 35.1584 79.8107 35.2541 79.7767C35.3507 79.7428 35.4561 79.793 35.4902 79.8881L38.8239 89.2074C38.8581 89.3033 38.8076 89.4081 38.7118 89.442C38.691 89.4494 38.6702 89.4523 38.6502 89.4523V89.4531Z" fill="#070706"/>
<path d="M43.9246 91.2387C43.9246 91.2387 55.138 85.043 55.2984 89.2693C55.4409 93.0199 47.3095 93.2324 47.3095 93.2324L42.6223 93.3777" fill="#FC9FAD"/>
<path d="M16.3606 70.4722L14.6819 71.0962C14.6819 71.0962 16.596 78.3731 21.9981 78.7648C25.8819 79.0458 24.2144 73.064 24.2144 73.064C19.6868 72.0078 18.164 72.2224 16.3606 70.4722Z" fill="white"/>
<path d="M26.1893 69.6416L26.9206 69.6674C29.223 69.677 32.4891 74.1077 29.0285 75.827C27.4456 76.6132 25.1165 74.2699 25.1165 74.2699C26.4737 72.7476 26.6251 71.7821 26.1893 69.6416Z" fill="white"/>
<path d="M15.2641 52.0585C14.2581 53.7682 13.3411 55.5738 13.0144 57.5277C12.6877 59.4815 13.0219 61.6227 14.2959 63.1458C15.57 64.669 17.8931 65.3792 19.6669 64.475C21.0546 63.7676 21.8675 62.2571 22.1749 60.7384C22.5952 58.6599 22.1957 56.4294 21.0805 54.6224C19.9646 52.8153 18.1441 51.4508 16.089 50.8813" fill="#070706"/>
<path d="M26.6949 69.6785C30.4896 76.2814 20.0425 77.3892 16.3606 70.6418L17.7809 59.4431L27.6356 61.6514L26.6942 69.6785H26.6949Z" fill="#FC9FAD"/>
<path d="M26.695 69.6787L22.3093 65.3211L27.6365 61.6516L26.695 69.6787Z" fill="#070706"/>
<path d="M34.6491 53.7374C36.6292 60.0555 34.5333 65.3911 30.0948 66.7638C25.6564 68.1364 20.5134 66.0284 18.5332 59.7096C16.5531 53.3914 19.3291 45.8312 23.5604 43.9172C29.7488 41.1188 32.6689 47.4185 34.6491 53.7374Z" fill="#FC9FAD"/>
<path d="M32.6712 47.5917C32.346 48.6052 31.6362 49.4571 30.8329 50.16C28.5535 52.15 25.3795 53.083 22.3799 52.6471C22.4831 53.3722 22.5477 54.0987 22.5745 54.8281C22.5871 55.2028 22.5225 55.6749 22.1631 55.7877C21.9241 55.8615 21.6657 55.7243 21.5098 55.5311C21.3568 55.3378 21.2781 55.0981 21.1749 54.8724C20.9455 54.3701 20.4206 53.592 19.8519 53.423C19.7828 53.4009 19.7041 53.3965 19.6202 53.4031C19.1153 53.4444 18.3929 53.9298 17.9964 54.0913C17.8858 54.1356 15.9213 54.9262 15.9116 54.9019C15.9116 54.9019 13.8958 49.8908 16.4759 45.2322C19.5734 39.6354 29.7563 38.4752 31.1536 43.6973C31.1737 43.7733 31.1907 43.8492 31.2026 43.9252C31.5746 44.0572 31.9176 44.28 32.1738 44.5765C32.8739 45.3819 32.9942 46.5768 32.6712 47.5925V47.5917Z" fill="#070706"/>
<path d="M19.9268 59.3091C21.5889 58.4887 22.2668 56.4852 21.441 54.8341C20.6153 53.183 18.5985 52.5095 16.9364 53.3298C15.2744 54.1502 14.5964 56.1537 15.4222 57.8048C16.248 59.4559 18.2648 60.1294 19.9268 59.3091Z" fill="#FC9FAD"/>
<path d="M18.4693 57.9357C17.865 57.9357 17.2762 57.5514 17.0527 56.9879C16.8671 56.518 16.9272 55.956 17.2146 55.4832C17.5271 54.9691 18.0142 54.6822 18.3676 54.5317C18.4604 54.4919 18.5703 54.5347 18.6104 54.6283C18.6505 54.7213 18.6067 54.8297 18.5131 54.8695C18.2095 54.9986 17.7929 55.2435 17.5316 55.6735C17.3066 56.043 17.2554 56.4959 17.3972 56.8536C17.5791 57.3117 18.1063 57.6229 18.5978 57.561C18.8992 57.5234 19.1784 57.3522 19.3261 57.1162C19.4791 56.8699 19.4902 56.5483 19.3521 56.3145C19.2118 56.077 18.9155 55.9449 18.6601 56.0062C18.407 56.0674 18.2154 56.3359 18.251 56.58C18.2659 56.6803 18.1953 56.7732 18.0944 56.788C17.9964 56.8027 17.8998 56.7334 17.885 56.6324C17.8219 56.1979 18.13 55.7569 18.5725 55.6492C18.9846 55.5489 19.4471 55.7502 19.6706 56.1279C19.8793 56.4804 19.8666 56.9444 19.6402 57.3087C19.4323 57.6421 19.0596 57.873 18.6438 57.9246C18.5859 57.932 18.5272 57.9357 18.4693 57.9357Z" fill="#070706"/>
<path d="M29.7066 63.4163C29.6309 63.4163 29.5596 63.3699 29.5329 63.2946C29.1409 62.2089 28.2603 61.6476 26.6781 61.4728C26.5772 61.4617 26.5037 61.371 26.5148 61.27C26.5259 61.1689 26.618 61.0959 26.719 61.1077C27.8906 61.2368 29.3094 61.5886 29.8811 63.1707C29.9153 63.2659 29.8655 63.3713 29.7697 63.4053C29.749 63.4126 29.7282 63.4163 29.7074 63.4163H29.7066Z" fill="#070706"/>
<path d="M30.0948 58.9697C30.0042 58.9697 29.9247 58.9033 29.9121 58.8111C29.898 58.7108 29.9685 58.6178 30.0695 58.6038C30.2744 58.5758 30.4868 58.5463 30.6687 58.4681C30.8498 58.3899 30.9827 58.2653 31.0332 58.1259C31.0956 57.954 31.0496 57.7453 30.9865 57.5092C30.8825 57.1183 30.665 56.4493 30.4541 55.8017C30.2418 55.1497 30.022 54.4756 29.9158 54.0751C29.8898 53.977 29.9485 53.8767 30.0472 53.8508C30.1467 53.825 30.247 53.8833 30.2729 53.9814C30.3769 54.3723 30.5944 55.0413 30.8053 55.6889C31.0176 56.3409 31.2374 57.0151 31.3436 57.4156C31.4037 57.6442 31.4869 57.957 31.38 58.2505C31.2931 58.488 31.0926 58.6849 30.8149 58.8052C30.5863 58.9033 30.3494 58.9365 30.12 58.9682C30.1111 58.9697 30.1029 58.9697 30.094 58.9697H30.0948Z" fill="#070706"/>
<path d="M33.4173 51.7583C33.3935 52.2082 32.657 51.7679 31.9294 51.9309C31.1906 52.0829 30.7518 52.7363 30.5989 52.5136C30.4422 52.3299 30.7801 51.5097 31.6985 51.1063C32.6199 50.691 33.467 51.3062 33.418 51.7583H33.4173Z" fill="#070706"/>
<path d="M32.6935 54.3361C32.4173 54.73 31.9324 54.7816 31.6117 54.4504C31.2909 54.1193 31.2546 53.5314 31.5308 53.1375C31.807 52.7437 32.2918 52.692 32.6125 53.0232C32.934 53.3544 32.9697 53.9422 32.6935 54.3361Z" fill="#070706"/>
<path d="M29.1163 54.0286C29.0925 54.4785 28.356 54.0382 27.6284 54.2012C26.8896 54.3531 26.4508 55.0066 26.2979 54.7839C26.1412 54.6002 26.479 53.78 27.3967 53.3766C28.3181 52.9613 29.1653 53.5764 29.1163 54.0286Z" fill="#070706"/>
<path d="M28.3924 56.6064C28.1162 57.0002 27.6314 57.0519 27.3107 56.7207C26.9899 56.3895 26.9535 55.8017 27.2297 55.4078C27.5059 55.0139 27.9908 54.9623 28.3115 55.2935C28.633 55.6247 28.6686 56.2125 28.3924 56.6064Z" fill="#070706"/>
<path d="M43.0522 91.9062C43.0522 91.9062 54.2864 88.7663 55.5353 90.5941C56.1664 91.5183 55.5724 92.753 55.5724 92.753C55.5724 92.753 57.2533 94.1005 56.1426 95.3419C56.1426 95.3419 57.7768 96.5213 56.6816 97.6866C56.6816 97.6866 58.321 99.2584 55.4432 100.946C52.5654 102.634 45.267 103.471 45.267 103.471L43.053 91.9055L43.0522 91.9062Z" fill="#FC9FAD"/>
<path d="M52.633 93.5613C52.5462 93.5613 52.4689 93.5009 52.4519 93.4131C52.4326 93.3135 52.4979 93.2169 52.5974 93.1977L55.4863 92.6349C55.5865 92.615 55.6838 92.6799 55.7031 92.7795C55.7224 92.8791 55.6571 92.9757 55.5576 92.9949L52.6687 93.5577C52.6568 93.5599 52.6449 93.5613 52.633 93.5613Z" fill="#070706"/>
<path d="M53.3198 96.3574C53.2389 96.3574 53.1646 96.3043 53.1416 96.2232C53.1141 96.1258 53.172 96.0241 53.27 95.9968L56.159 95.1958C56.2585 95.1685 56.3594 95.226 56.3869 95.3234C56.4144 95.4207 56.3565 95.5225 56.2585 95.5498L53.3695 96.3508C53.3532 96.3552 53.3361 96.3574 53.3198 96.3574Z" fill="#070706"/>
<path d="M53.9271 98.4757C53.8432 98.4757 53.7668 98.4182 53.7475 98.3326C53.7252 98.2338 53.7868 98.1357 53.8863 98.1129L56.629 97.4911C56.7285 97.4682 56.8279 97.5302 56.8502 97.629C56.8725 97.7278 56.8109 97.8259 56.7114 97.8488L53.9687 98.4706C53.9546 98.4735 53.9413 98.475 53.9271 98.475V98.4757Z" fill="#070706"/>
<path d="M42.2809 90.6384C46.4171 90.1428 49.3068 104.831 45.1705 105.327C45.1705 105.327 11.8488 121.09 3.45531 114.015C-2.77395 108.765 0.372606 84.6102 6.45411 76.3043C6.45411 76.3043 13.2075 74.8874 15.2152 81.1981C16.588 85.5122 15.5983 99.0771 15.5983 99.0771L42.2801 90.6392L42.2809 90.6384Z" fill="#C4A867"/>
<path d="M11.4138 115.996C11.3158 115.996 11.2341 115.92 11.2297 115.822C11.2252 115.721 11.3039 115.634 11.4056 115.63C24.0861 115.036 44.8833 105.26 45.0919 105.162C45.1839 105.119 45.2946 105.158 45.3384 105.249C45.3822 105.341 45.3428 105.45 45.2508 105.494C45.0414 105.593 24.1782 115.4 11.4227 115.997C11.4197 115.997 11.4168 115.997 11.4138 115.997V115.996Z" fill="#070706"/>
<path d="M15.5991 99.2598C15.5583 99.2598 15.5174 99.2465 15.4848 99.2207C15.4365 99.1831 15.4105 99.1241 15.415 99.0629C15.4246 98.9279 16.3869 85.484 15.04 81.2525C15.0096 81.1559 15.0631 81.0526 15.1603 81.0224C15.2598 80.9922 15.3615 81.0453 15.392 81.1419C16.669 85.1551 15.9377 96.8339 15.8018 98.8188L42.2245 90.4627C42.3211 90.4317 42.4257 90.4856 42.4569 90.5822C42.4874 90.6788 42.4339 90.7821 42.3366 90.813L15.6548 99.251C15.6362 99.2569 15.6177 99.2598 15.5984 99.2598H15.5991Z" fill="#070706"/>
<path d="M126.568 115.097C126.322 116.278 125.795 117.378 125.042 118.356C123.086 120.901 119.612 122.594 115.652 122.594C111.691 122.594 108.217 120.901 106.262 118.356C105.196 116.971 104.581 115.336 104.581 113.582C104.581 112.296 104.912 110.901 105.509 109.544C105.514 109.544 105.517 109.546 105.522 109.547C107.06 109.986 108.714 110.528 110.205 109.931C112.033 109.199 113.089 106.938 114.988 106.45C116.35 106.099 117.784 106.796 118.828 107.787C119.873 108.778 120.64 110.05 121.556 111.171C122.283 112.06 123.11 112.854 124.009 113.54C124.808 114.15 125.668 114.673 126.567 115.096L126.568 115.097Z" fill="#C4A867"/>
<path d="M125.818 86.2905C124.892 88.4251 123.306 90.4601 121.318 91.8003C120.073 92.6381 119.124 93.7755 118.557 95.0677C118.128 95.2942 117.722 95.5575 117.354 95.8813C115.599 97.4287 116.58 100.798 115.321 100.798C114.432 100.798 114.381 99.5958 113.876 98.3559C113.721 97.9775 113.537 97.6058 113.323 97.2547C113.109 95.0818 111.898 93.0873 109.986 91.7995C109.2 91.2699 108.476 90.6319 107.833 89.9202C108.009 89.9283 108.182 89.9379 108.352 89.9423C110.14 89.9969 111.941 89.4666 113.41 88.4539C114.836 87.4692 115.938 86.0604 117.427 85.1753C120.013 83.6352 123.614 84.0424 125.785 86.1201C125.797 86.1762 125.809 86.2337 125.818 86.2913V86.2905Z" fill="#C4A867"/>
<path d="M115.274 102.892C114.831 102.892 114.472 102.535 114.472 102.095V98.5012C114.472 98.0608 114.831 97.7046 115.274 97.7046C115.717 97.7046 116.076 98.0616 116.076 98.5012V102.095C116.076 102.536 115.716 102.892 115.274 102.892Z" fill="#C4A867"/>
<path d="M117.994 102.55V103.948C117.994 104.389 117.634 104.746 117.193 104.746C116.752 104.746 116.39 104.389 116.39 103.948V102.55C116.39 102.109 116.75 101.755 117.193 101.755C117.415 101.755 117.615 101.842 117.759 101.987C117.902 102.132 117.993 102.33 117.993 102.55L117.994 102.55Z" fill="#C4A867"/>
<path d="M116.202 105.658V107.056C116.202 107.496 115.842 107.854 115.401 107.854C114.96 107.854 114.597 107.496 114.597 107.056V105.658C114.597 105.217 114.958 104.862 115.401 104.862C115.623 104.862 115.822 104.95 115.967 105.094C116.11 105.239 116.201 105.437 116.201 105.657L116.202 105.658Z" fill="#C4A867"/>
<path d="M113.92 104.428V105.826C113.92 106.266 113.56 106.624 113.119 106.624C112.678 106.624 112.316 106.266 112.316 105.826V104.428C112.316 103.987 112.676 103.633 113.119 103.633C113.341 103.633 113.541 103.72 113.686 103.865C113.828 104.009 113.92 104.208 113.92 104.428L113.92 104.428Z" fill="#C4A867"/>
<g opacity="0.2">
<path d="M126.724 113.582C126.724 114.098 126.671 114.603 126.568 115.097C126.322 116.278 125.795 117.378 125.042 118.356C123.086 120.901 119.612 122.594 115.652 122.594C111.691 122.594 108.217 120.901 106.262 118.356C105.196 116.971 104.581 115.336 104.581 113.582C104.581 112.296 104.912 110.901 105.509 109.544C106.435 107.427 108.011 105.41 109.985 104.081C112.098 102.66 113.354 100.376 113.354 97.9412V97.9398C113.354 97.7104 113.343 97.4817 113.323 97.2553C113.109 95.0824 111.898 93.088 109.985 91.8001C109.2 91.2706 108.476 90.6326 107.833 89.9208C105.824 87.7058 104.58 84.7924 104.58 82.3001C104.58 80.5469 105.196 78.9094 106.262 77.5243C108.217 74.9796 111.691 73.2869 115.651 73.2869C119.611 73.2869 123.086 74.9796 125.042 77.5243C126.108 78.9094 126.723 80.5461 126.723 82.3001C126.723 83.5702 126.4 84.9488 125.817 86.2904C124.891 88.425 123.306 90.46 121.317 91.8001C120.072 92.638 119.123 93.7754 118.556 95.0676C118.16 95.9675 117.947 96.9411 117.947 97.9412C117.947 99.1605 118.262 100.339 118.841 101.391C119.419 102.444 120.262 103.369 121.317 104.081C124.555 106.262 126.723 110.289 126.723 113.582H126.724Z" fill="white"/>
</g>
<path d="M115.652 122.778C111.753 122.778 108.188 121.167 106.116 118.468C104.991 117.008 104.396 115.318 104.396 113.583C104.396 112.295 104.723 110.873 105.34 109.471C106.319 107.234 107.975 105.214 109.881 103.93C111.941 102.544 113.17 100.305 113.17 97.9421C113.17 97.7245 113.159 97.4995 113.138 97.2723C112.929 95.1444 111.742 93.2046 109.881 91.9521C109.096 91.4226 108.361 90.7801 107.696 90.0433C105.66 87.8003 104.396 84.833 104.396 82.3002C104.396 80.5639 104.991 78.8741 106.116 77.413C108.188 74.7141 111.753 73.1033 115.652 73.1033C119.55 73.1033 123.115 74.7141 125.189 77.413C126.314 78.8741 126.909 80.5639 126.909 82.3002C126.909 83.5718 126.59 84.9769 125.988 86.3635C125.009 88.619 123.344 90.6562 121.422 91.9521C120.219 92.762 119.287 93.8647 118.727 95.1415C118.333 96.0347 118.134 96.9766 118.134 97.9421C118.134 99.1052 118.434 100.268 119.004 101.304C119.572 102.338 120.408 103.246 121.422 103.93C124.601 106.072 126.91 110.132 126.91 113.584C126.91 114.105 126.856 114.628 126.75 115.135C126.502 116.325 125.978 117.446 125.19 118.469C123.116 121.168 119.55 122.779 115.652 122.779L115.652 122.778ZM115.652 73.4698C111.867 73.4698 108.413 75.0269 106.41 77.635C105.334 79.0312 104.766 80.6443 104.766 82.2994C104.766 84.7452 105.994 87.6181 107.97 89.7969C108.616 90.5124 109.329 91.1349 110.089 91.6475C112.041 92.9612 113.287 94.9984 113.507 97.2369C113.528 97.4759 113.539 97.7119 113.539 97.9391C113.539 100.426 112.25 102.778 110.088 104.232C108.237 105.479 106.63 107.441 105.678 109.616C105.081 110.972 104.765 112.343 104.765 113.582C104.765 115.235 105.334 116.848 106.409 118.244C108.412 120.853 111.867 122.41 115.652 122.41C119.436 122.41 122.891 120.853 124.896 118.244C125.65 117.265 126.152 116.193 126.388 115.058C126.489 114.574 126.54 114.078 126.54 113.581C126.54 110.242 124.301 106.31 121.215 104.231C120.153 103.514 119.276 102.562 118.68 101.477C118.081 100.388 117.765 99.1642 117.765 97.9398C117.765 96.9234 117.975 95.9321 118.389 94.9925C118.977 93.6523 119.954 92.495 121.216 91.6468C123.082 90.3892 124.698 88.4103 125.65 86.2167C126.233 84.8758 126.541 83.5209 126.541 82.2987C126.541 80.6436 125.973 79.0312 124.898 77.635C122.893 75.0261 119.437 73.4691 115.653 73.4691L115.652 73.4698Z" fill="#070706"/>
<path d="M128.964 75.2598C128.964 75.9546 128.68 76.5838 128.221 77.0389C127.763 77.4954 127.129 77.7772 126.43 77.7772H104.874C103.475 77.7772 102.34 76.6501 102.34 75.2598C102.34 74.5635 102.624 73.9344 103.082 73.4793C103.54 73.0242 104.175 72.741 104.874 72.741H126.43C127.83 72.741 128.964 73.868 128.964 75.2598Z" fill="#789AFE"/>
<path d="M126.43 77.9609H104.874C103.375 77.9609 102.155 76.7491 102.155 75.2599C102.155 74.537 102.438 73.8585 102.951 73.3488C103.465 72.8384 104.148 72.5566 104.874 72.5566H126.43C127.929 72.5566 129.149 73.7692 129.149 75.2591C129.149 75.9812 128.865 76.6598 128.352 77.1687C127.839 77.6791 127.157 77.9602 126.43 77.9602V77.9609ZM104.874 72.924C104.247 72.924 103.657 73.1666 103.213 73.6084C102.769 74.0488 102.525 74.6351 102.525 75.2591C102.525 76.5462 103.579 77.5928 104.874 77.5928H126.43C127.058 77.5928 127.647 77.3502 128.09 76.9084C128.535 76.468 128.779 75.8824 128.779 75.2584C128.779 73.9706 127.726 72.9232 126.43 72.9232H104.874V72.924Z" fill="#070706"/>
<path d="M102.34 121.297C102.34 120.603 102.624 119.973 103.083 119.518C103.541 119.062 104.175 118.78 104.874 118.78H126.43C127.83 118.78 128.964 119.907 128.964 121.297C128.964 121.994 128.68 122.623 128.222 123.078C127.763 123.534 127.129 123.816 126.43 123.816H104.874C103.475 123.816 102.34 122.689 102.34 121.297Z" fill="#789AFE"/>
<path d="M126.43 124H104.874C103.375 124 102.155 122.787 102.155 121.297C102.155 120.575 102.438 119.897 102.953 119.388C103.465 118.877 104.147 118.596 104.874 118.596H126.43C127.929 118.596 129.149 119.808 129.149 121.297C129.149 122.02 128.866 122.699 128.353 123.208C127.839 123.718 127.156 124 126.43 124ZM104.874 118.964C104.246 118.964 103.657 119.206 103.214 119.648C102.769 120.089 102.525 120.674 102.525 121.298C102.525 122.586 103.579 123.633 104.874 123.633H126.43C127.057 123.633 127.648 123.39 128.092 122.949C128.535 122.509 128.779 121.922 128.779 121.298C128.779 120.011 127.726 118.964 126.43 118.964H104.874V118.964Z" fill="#070706"/>
<path d="M29.0349 117.136L28.7734 117.396L30.7753 119.384L31.0367 119.124L29.0349 117.136Z" fill="white"/>
<path d="M19.7125 117.136L16.9463 119.885L17.2077 120.144L19.974 117.396L19.7125 117.136Z" fill="white"/>
<path d="M87.1096 49.1378C87.1245 49.1179 87.2908 49.2197 87.5974 49.4351C87.8862 49.6689 88.3206 50.0207 88.7609 50.585C89.2056 51.1418 89.6726 51.8964 90.0156 52.853C90.3668 53.8045 90.6036 54.9492 90.6519 56.2216C90.7016 57.4902 90.5895 58.9056 90.1359 60.3498C89.6904 61.7851 88.8796 63.2765 87.5558 64.4117C86.898 64.9781 86.1221 65.4339 85.278 65.7695C84.4308 66.097 83.5176 66.2866 82.5843 66.3567C81.6503 66.4267 80.6947 66.3758 79.7474 66.2025C78.8007 66.0284 77.8556 65.7533 76.955 65.3381C75.1523 64.512 73.631 63.2551 72.4668 61.8235C71.2952 60.3918 70.4465 58.8119 69.8585 57.2313C69.2734 55.6477 68.9809 54.0398 69.001 52.5307C69.0195 51.0231 69.3425 49.6217 69.8734 48.4534C70.4005 47.2828 71.0851 46.3299 71.7815 45.5938C72.4757 44.8525 73.1729 44.317 73.772 43.9357C73.919 43.8361 74.0638 43.7505 74.2027 43.6753C74.3408 43.5993 74.467 43.5234 74.5895 43.4629C74.8375 43.3463 75.0424 43.2416 75.2169 43.1745C75.5658 43.0403 75.7522 42.982 75.7618 43.0048C75.7715 43.0277 75.6044 43.131 75.2807 43.3043C75.1188 43.3913 74.9273 43.5153 74.6956 43.648C74.5813 43.7174 74.4633 43.8007 74.3341 43.8848C74.2041 43.9674 74.069 44.0596 73.9317 44.1658C73.3718 44.5722 72.7222 45.1224 72.0822 45.8615C71.44 46.5954 70.8141 47.5284 70.3426 48.6532C69.8674 49.7751 69.5927 51.102 69.5994 52.5329C69.6053 53.9631 69.9045 55.4899 70.4822 57.0012C71.062 58.5095 71.8936 60.0253 73.014 61.3787C74.1277 62.7344 75.568 63.9131 77.2557 64.6868C78.0969 65.0747 78.9863 65.3351 79.8751 65.5011C80.7653 65.667 81.6629 65.7179 82.5338 65.6567C83.404 65.5962 84.2504 65.4251 85.0292 65.1315C85.8029 64.8299 86.5179 64.4205 87.1237 63.9101C88.3443 62.8878 89.1202 61.5203 89.5657 60.1698C90.0193 58.8127 90.1582 57.4607 90.1418 56.237C90.1277 55.0112 89.9347 53.9078 89.634 52.9851C89.3407 52.0564 88.9301 51.3152 88.5359 50.7531C87.734 49.6283 87.0606 49.1968 87.1111 49.1393L87.1096 49.1378Z" fill="#FF571C"/>
<path d="M84.6729 50.8735C84.6729 51.1678 84.5601 51.4591 84.3344 51.6833L76.9936 58.9758C76.5452 59.4243 75.8139 59.4243 75.3654 58.9758C74.914 58.5274 74.914 57.8038 75.3654 57.3553L82.7061 50.0629C83.1546 49.6174 83.8859 49.6174 84.3344 50.0629C84.5601 50.2871 84.6729 50.5785 84.6729 50.8735Z" fill="#FF571C"/>
<path d="M75.0261 50.8735C75.0261 51.1678 75.139 51.4591 75.3647 51.6833L82.7054 58.9758C83.1539 59.4243 83.8852 59.4243 84.3336 58.9758C84.785 58.5274 84.785 57.8038 84.3336 57.3553L76.9929 50.0629C76.5445 49.6174 75.8131 49.6174 75.3647 50.0629C75.139 50.2871 75.0261 50.5785 75.0261 50.8735Z" fill="#FF571C"/>
</svg>
