<svg width="195" height="183" viewBox="0 0 195 183" fill="none" xmlns="http://www.w3.org/2000/svg">
<path d="M29.1086 79.6771C30.0446 78.7412 29.8941 77.7551 28.713 77.1255C27.2422 76.3344 25.7658 77.8108 26.5514 79.2872C27.1865 80.4627 28.167 80.6131 29.103 79.6771H29.1086Z" fill="#C4A867"/>
<path d="M22.9203 76.4752C23.8674 76.3415 24.1237 75.9571 24.1237 74.698C24.1237 73.3386 23.912 73.0879 22.7922 73.0879C21.4105 73.0879 20.8032 74.2801 21.3994 75.8345C21.5832 76.3136 22.2128 76.5755 22.9203 76.4752Z" fill="#C4A867"/>
<path d="M32.1623 175.915C45.277 178.656 69.0494 181.53 87.8969 182.65C98.3987 183.28 126.689 182.962 133.18 182.154C135.982 181.803 139.119 181.48 140.149 181.436C141.904 181.358 142.088 181.174 142.924 178.672C143.593 176.689 144.083 176.015 144.796 176.087C147.582 176.36 160.657 173.575 165.359 171.703C180.558 165.647 194.28 156.861 194.28 153.178C194.28 152.398 192.848 145.997 191.093 138.955C188.213 127.395 181.822 100.163 178.407 84.8863C176.608 76.8414 174.998 66.2561 174.992 62.4119C174.992 59.8882 175.22 58.9801 176.14 58.0051C177.599 56.4451 177.549 54.7292 175.889 49.4254C173.744 42.6006 172.413 36.5391 171.488 29.4191C171.009 25.7365 170.318 21.2684 169.944 19.5023L169.276 16.2877L163.153 15.9479C159.783 15.7584 152.144 15.5189 146.178 15.413L135.325 15.218L134.718 13.3405C131.525 3.50173 124.366 -0.587557 118.349 3.99757C117.363 4.74968 116.098 6.26506 115.53 7.37373C114.327 9.73036 113.179 15.4966 113.664 16.7557C114.048 17.7641 113.775 17.8087 111.201 17.129C110.171 16.856 104.989 16.3601 99.68 16.0259C94.3762 15.6916 86.8049 15.0565 82.8549 14.6163C78.9049 14.1762 71.6679 13.6079 66.7764 13.3461C55.3498 12.7444 54.4918 12.4603 52.8706 8.77212C49.3997 0.87768 42.5749 -2.18092 36.9313 1.63537C34.9646 2.96132 32.4186 7.35702 32.4186 9.41281C32.4186 10.5828 32.2904 10.6273 29.3098 10.3098C25.7832 9.94207 25.1648 10.1816 16.9751 15.1735C14.2842 16.817 11.5042 18.1541 10.7966 18.1541C7.98315 18.1541 7.41488 21.0957 8.25614 31.3523C9.15868 42.5171 9.43164 63.7936 8.6851 64.6961C8.20597 65.2756 8.36756 65.6823 9.44281 66.5792C10.2005 67.2088 10.986 68.1782 11.1866 68.7409C11.3872 69.3036 11.5487 76.535 11.5599 84.8194C11.571 102.157 10.3788 116.871 7.71013 132.57C6.08333 142.114 2.89103 155.713 0.762823 162.159C0.0329914 164.36 -0.173136 165.781 0.144424 166.354C1.10268 168.065 16.2063 172.572 32.1567 175.909L32.1623 175.915ZM153.821 145.167C153.387 154.744 153.036 164.778 153.03 167.463L153.019 172.338L149.303 172.956C147.258 173.296 145.342 173.569 145.047 173.569C144.751 173.569 145.108 171.458 145.827 168.878C150.908 150.688 152.573 139.897 154.039 115.69L154.473 108.453L154.54 118.102C154.579 123.406 154.256 135.585 153.821 145.167ZM177.594 91.3601C179.053 97.5219 181.371 107.99 182.742 114.62C185.761 129.222 188.469 140.66 190.352 146.777C192.475 153.663 192.703 155.268 191.622 155.613C191.126 155.769 188.447 157.245 185.666 158.895C182.886 160.544 178.53 162.934 175.995 164.215L171.382 166.544L170.719 161.078C170.357 158.076 169.242 152.482 168.245 148.649C167.248 144.816 166.563 142.766 166.724 144.092C166.88 145.418 167.348 151.206 167.755 156.956C168.624 169.084 169.109 167.87 162.457 170.249C160.061 171.107 157.443 171.965 156.635 172.16L155.175 172.511L155.437 162.187C155.582 156.51 155.966 143.473 156.306 133.211C156.941 113.701 156.835 109.767 155.17 92.647C153.71 77.588 153.487 73.8887 154.05 73.8887C154.323 73.8887 154.618 73.365 154.713 72.7243C154.807 72.0836 155.153 71.4708 155.476 71.3649C155.855 71.2423 156.178 72.7466 156.39 75.6102C157.047 84.6857 161.069 105.127 162.011 104.185C162.15 104.046 161.866 101.21 161.387 97.884C160.245 90.023 158.295 70.0278 158.635 69.688C158.78 69.5431 160.518 68.5292 162.501 67.4316L166.1 65.4371L168.134 79.6326C169.27 87.566 170.975 96.9536 172 100.92C173.777 107.795 174.652 112.737 176.273 125.099C176.769 128.838 177.61 132.398 178.563 134.749L180.073 138.465L180.229 136.041C180.391 133.551 179.042 126.308 175.794 112.208C173.789 103.494 173.293 100.335 172.039 88.0898C170.997 77.9668 170.334 73.6435 169.014 68.3286C168.435 66.011 168.034 64.0722 168.123 64.022C168.212 63.9663 169.159 63.2866 170.229 62.4955L172.173 61.0637L172.502 62.7184C172.686 63.6265 172.83 65.1586 172.83 66.128C172.83 69.1364 174.819 79.6883 177.583 91.3545L177.594 91.3601ZM168.786 26.2602C168.88 26.3716 169.365 29.4748 169.861 33.163C170.875 40.7231 172.39 47.9267 173.894 52.3781C174.658 54.6401 174.758 55.5705 174.307 56.1109C173.354 57.253 167.493 61.3144 162.273 64.4454C154.479 69.1197 155.158 68.9749 155.158 65.9998C155.158 64.5903 154.819 59.9439 154.401 55.6652C153.988 51.392 153.565 44.8848 153.465 41.2078L153.286 34.5279L155.966 32.7396C158.874 30.7952 168.496 25.9371 168.791 26.2602H168.786ZM167.761 20.3937C167.855 20.4884 168.095 21.2015 168.29 21.9759C168.607 23.2517 168.346 23.5637 165.499 25.2908C163.772 26.3438 161.76 27.4302 161.03 27.7087C160.301 27.9873 158.434 28.9623 156.874 29.8815C153.498 31.8704 153.013 31.9262 153.013 30.3439C153.013 29.2018 156.05 26.1878 157.192 26.1878C157.459 26.1878 159.905 24.8451 162.629 23.196C165.354 21.5525 167.66 20.2878 167.761 20.3881V20.3937ZM116.566 11.229C117.742 6.3152 121.458 3.45716 124.94 4.77197C128.611 6.1592 131.035 9.84179 132.929 16.9173C134.272 21.9202 134.283 21.9035 130.004 21.9035H127.436L125.943 16.2766C124.734 11.697 124.266 10.6496 123.464 10.6496C122.199 10.6496 122.127 13.3851 123.274 17.7975C123.72 19.4967 124.076 21.2517 124.076 21.6974C124.076 22.8673 117.274 22.5721 116.823 21.3854C116.087 19.4633 115.942 13.8308 116.566 11.229ZM41.8005 2.6159C44.6697 2.6159 47.0988 4.18699 49.0821 7.30131C50.6142 9.71366 53.1825 16.8783 52.6978 17.3685C52.5697 17.4967 51.929 17.6638 51.2661 17.7418C50.2354 17.8644 49.656 17.1067 47.2826 12.555C45.7505 9.61894 44.1961 7.1286 43.8284 7.01717C42.6362 6.65504 43.1042 9.05624 45.082 13.4408C46.1405 15.7863 46.9261 17.7752 46.8258 17.8588C46.7255 17.9424 44.4246 18.1485 41.7114 18.3156L36.7809 18.6221L35.9006 14.6665C34.2905 7.43502 36.6471 2.6159 41.8005 2.62147V2.6159ZM18.7523 17.2905C20.4794 16.2543 22.9085 14.5662 24.1508 13.5467L26.4128 11.7026L29.4268 12.6274L32.4353 13.5578L33.3044 16.6498C33.7835 18.3546 34.5412 20.0483 34.9981 20.4271C36.051 21.2962 48.7478 21.0901 52.5586 20.143L55.2105 19.4856L55.1659 17.2125C55.1381 15.9646 55.1436 14.945 55.1659 14.945C55.1938 14.945 56.0573 15.1902 57.088 15.4966C58.1186 15.803 64.1467 16.2654 70.4812 16.5328C76.8213 16.7947 86.6267 17.5134 92.2759 18.1206C97.9251 18.7279 105.09 19.285 108.193 19.3575L113.848 19.4967L114.706 21.7475C115.213 23.0735 116.026 24.1487 116.672 24.3549C118.065 24.795 128.762 24.7448 132.489 24.2824C135.865 23.8646 137.531 22.8562 136.528 21.8422C136.16 21.469 135.86 20.221 135.86 19.0622C135.86 17.051 135.926 16.9785 137.336 17.2794C138.149 17.4521 144.952 17.7585 152.456 17.9647C162.657 18.2432 165.855 18.4828 165.12 18.9173C164.579 19.2349 161.693 21.1012 158.707 23.0679C153.481 26.5053 153.108 26.6558 148.456 27.2352C143.899 27.8034 96.0866 28.472 90.8441 28.0374C89.5181 27.926 82.5262 27.5806 75.3003 27.2686C47.7227 26.0652 40.0901 25.2073 25.1258 21.6472C20.7357 20.6054 16.8024 19.6249 16.3734 19.4689C15.8776 19.285 16.7244 18.5106 18.7412 17.2905H18.7523ZM10.9972 22.7838C10.9972 21.4634 11.1643 21.2907 12.2006 21.5302C12.8636 21.6918 16.7523 22.6723 20.836 23.7142C35.5218 27.4636 42.898 28.3271 74.2307 29.9929C92.7049 30.9735 99.3291 31.096 118.711 30.8063C131.236 30.6225 143.481 30.3161 145.91 30.1322L150.334 29.7924V31.4192C150.334 32.3886 150.005 33.1741 149.509 33.3635C149.058 33.5418 144.896 33.9318 140.266 34.2326C135.637 34.5391 128.35 35.1296 124.076 35.553C119.803 35.9764 110.761 36.6227 103.981 36.996C89.7354 37.7815 90.443 38.2662 106.661 38.8345C115.937 39.1576 117.798 39.0573 127.503 37.7369C137.67 36.3497 150.161 35.3023 150.646 35.7926C150.768 35.9207 150.874 37.4027 150.874 39.0963C150.874 40.79 151.247 46.4726 151.704 51.7375C152.161 56.9967 152.462 63.4593 152.373 66.1001L152.217 70.9025L145.971 72.3287C142.54 73.1087 135.542 74.4235 130.428 75.2369C118.054 77.2036 103.457 77.4654 85.4901 76.028C68.5982 74.6742 66.7596 74.4124 44.4914 70.1002C33.8838 68.0445 22.6689 65.8773 19.5713 65.2867C16.4793 64.6961 13.4597 64.1056 12.8747 63.983C11.8329 63.7546 11.805 63.3089 11.7827 46.0437C11.7716 36.3051 11.9387 28.3383 12.1504 28.3383C12.3621 28.3383 13.1867 28.5834 13.9833 28.8843C14.78 29.1851 18.8359 29.9205 22.9976 30.5222C27.1537 31.1183 32.023 31.9429 33.817 32.3496C43.1209 34.4833 54.7536 35.5809 72.8991 36.0322C82.3591 36.2661 82.8494 36.2327 79.8409 35.5642C72.7599 33.9819 64.4476 33.0961 51.8232 32.5891C37.4104 32.0097 33.9562 31.486 22.7915 28.2491C12.1058 25.1515 11.0028 24.6334 11.0028 22.7782L10.9972 22.7838ZM7.19759 146.443C8.90239 138.788 10.8969 126.225 11.7883 117.573C12.2451 113.149 12.8468 107.723 13.131 105.517C14.3845 95.7948 14.7745 85.7276 14.2396 76.808C13.9444 71.8552 13.7549 67.7492 13.8218 67.6879C13.8886 67.6266 15.7494 67.8996 17.9612 68.284C20.173 68.674 26.8028 69.7493 32.6971 70.6797C38.5915 71.6045 48.4804 73.443 54.6701 74.7634C60.8597 76.0837 68.2193 77.5378 71.0161 77.9835C77.9857 79.1089 110.466 79.6215 120.344 78.7691C129.464 77.978 141.42 76.2676 146.406 75.0363L150.25 74.0892L150.685 78.6799C151.537 87.6663 151.214 120.553 150.183 130.437C148.077 150.605 146.4 159.608 142.127 173.825C140.974 177.653 140.684 178.132 139.292 178.483C138.439 178.695 132.238 179.252 125.514 179.709C118.784 180.171 109.263 180.516 104.343 180.483C87.7966 180.366 46.5026 176.327 33.9451 173.591C19.6326 170.483 2.1222 164.939 2.6069 163.68C3.22531 162.07 6.23934 150.744 7.19759 146.448V146.443Z" fill="#C4A867"/>
<path d="M56.1917 147.023C57.7627 149.491 61.2169 153.485 65.0165 157.235C69.2896 161.447 71.6407 163.391 72.4764 163.391C73.6797 163.391 89.0508 154.466 96.4884 149.446C101.079 146.349 103.269 143.947 108.35 136.448C114.183 127.841 116.211 120.949 114.957 114.03C113.481 105.901 108.929 101.06 101.447 99.6783C94.817 98.4527 87.3404 101.015 79.4571 107.222C77.6242 108.67 77.4236 108.72 77.1061 107.823C74.0475 99.0042 67.5904 94.0235 59.2224 94.0347C54.303 94.0403 50.821 95.6169 47.5674 99.3162C40.0239 107.885 41.8123 127.674 51.2444 139.914C52.5369 141.591 54.7598 144.794 56.1805 147.023H56.1917ZM45.6899 113.818C45.6676 105.74 47.7178 101.071 52.5202 98.2521C59.2224 94.3244 68.2868 97.3607 73.0669 105.138C74.4207 107.344 74.989 108.904 75.0113 110.487C75.0614 113.74 76.1868 113.601 80.4823 109.807C82.5046 108.018 85.9253 105.673 88.0758 104.592C91.4297 102.915 92.6498 102.598 96.5274 102.392C103.854 102.007 108.288 104.369 110.701 109.924C113.308 115.941 112.606 123.156 108.606 131.501C104.322 140.432 99.3631 145.502 88.7722 151.781C84.8723 154.093 79.68 157.051 77.2286 158.355L72.7661 160.722L69.6183 158.394C62.203 152.906 56.3086 145.045 50.4087 132.788C47.0381 125.796 45.7122 120.442 45.6899 113.824V113.818Z" fill="#C4A867"/>
<path d="M135.715 59.8051C135.871 60.2173 136.518 60.4792 137.142 60.39C138.59 60.1783 138.696 58.1783 137.27 57.9053C136.116 57.6824 135.286 58.6964 135.715 59.8051Z" fill="#C4A867"/>
<path d="M142.144 63.9104C143.013 64.7795 144.718 63.9494 144.874 62.59C145.085 60.785 143.715 59.5426 142.567 60.4897C141.732 61.1805 141.481 63.2419 142.144 63.9048V63.9104Z" fill="#C4A867"/>
<path d="M140.959 55.1362C142.023 55.1362 142.296 54.8632 142.296 53.8269C142.296 53.1083 142.045 52.3673 141.739 52.1723C140.959 51.6932 139.616 52.9188 139.616 54.1278C139.616 54.8465 140.006 55.1362 140.953 55.1362H140.959Z" fill="#C4A867"/>
<path d="M84.4163 36.8301C85.1517 36.8301 85.4525 36.702 85.0848 36.5572C84.7171 36.4067 84.1155 36.4067 83.7478 36.5572C83.3801 36.702 83.6809 36.8301 84.4163 36.8301Z" fill="#C4A867"/>
<path d="M165.968 139.807C165.968 140.543 166.09 140.843 166.235 140.476C166.386 140.108 166.386 139.506 166.235 139.139C166.09 138.771 165.968 139.072 165.968 139.807Z" fill="#C4A867"/>
<path d="M173.127 131.773C171.132 118.04 169.851 111.215 167.249 100.424C165.967 95.1201 164.486 88.1227 163.951 84.8802C163.416 81.6322 162.898 79.3758 162.797 79.8549C162.697 80.3341 163.221 84.1949 163.962 88.4291C164.697 92.6688 166.045 101.794 166.954 108.708C168.753 122.458 170.374 130.447 172.904 138.069C173.806 140.793 174.664 143.027 174.809 143.027C174.954 143.027 174.937 142.604 174.781 142.091C174.625 141.573 173.884 136.932 173.132 131.773H173.127Z" fill="#C4A867"/>
<path d="M184.954 149.908C184.537 147.296 184.208 146.649 183.528 147.067C182.809 147.513 182.915 150.733 183.673 151.491C184.876 152.694 185.317 152.154 184.954 149.908Z" fill="#C4A867"/>
<path d="M178.777 157.81C178.76 158.423 178.905 159.086 179.105 159.286C179.746 159.927 179.852 159.298 179.328 157.977C178.855 156.796 178.81 156.785 178.777 157.81Z" fill="#C4A867"/>
<path d="M18.7779 37.6375C17.7806 38.0219 17.6692 41.5262 18.6386 41.9162C19.6916 42.3396 19.8587 42.3118 20.544 41.6265C22.0371 40.1334 20.6275 36.9299 18.7835 37.6375H18.7779Z" fill="#C4A867"/>
<path d="M162.452 78.5704C162.63 78.3921 162.647 77.9297 162.497 77.5453C162.324 77.1163 162.196 77.2445 162.173 77.8684C162.151 78.4311 162.279 78.7542 162.458 78.5704H162.452Z" fill="#C4A867"/>
<path d="M24.6982 38.8964C24.5199 39.3533 24.6536 40.0552 24.9935 40.4619C25.9183 41.5762 27.495 41.3478 27.9128 40.033C28.5981 37.888 25.506 36.7961 24.7038 38.8909L24.6982 38.8964Z" fill="#C4A867"/>
<path d="M161.551 116.765C160.738 116.765 160.966 118.263 163.066 126.804C164.17 131.294 165.167 134.971 165.278 134.977C165.573 134.988 164.816 127.651 164.192 124.537C163.395 120.559 162.108 116.765 161.545 116.765H161.551Z" fill="#C4A867"/>
<path d="M165.433 136.593C165.433 137.328 165.555 137.629 165.7 137.261C165.85 136.893 165.85 136.292 165.7 135.924C165.555 135.556 165.433 135.857 165.433 136.593Z" fill="#C4A867"/>
</svg>
