<svg width="234" height="300" viewBox="0 0 234 300" fill="none" xmlns="http://www.w3.org/2000/svg">
<path d="M74.3359 44.0379C75.0893 41.7752 75.8202 39.7029 76.4678 37.6041C77.3943 34.5973 79.2261 32.3518 81.9474 30.8028C83.7224 29.793 85.43 28.6961 86.6816 27.0241C86.9922 26.6091 87.4178 26.14 87.9451 26.4796C88.569 26.8814 88.228 27.488 87.9768 28.0022C87.3662 29.2538 86.3578 30.2239 85.1696 30.7777C79.5486 33.3985 77.4339 38.3667 76.0991 43.9137C75.8915 44.7741 75.5862 45.6107 75.3113 46.4539C75.1382 46.9852 74.7906 47.3342 74.1958 47.3011C73.5747 47.2668 73.346 46.7989 73.2099 46.2887C72.8358 44.8785 72.5953 43.422 72.0878 42.0634C71.6463 40.8844 70.9829 39.5786 69.4326 39.7438C68.0448 39.8919 67.6126 41.158 67.236 42.3237C65.679 47.1399 67.684 53.0781 71.8697 55.7175C72.7777 56.2898 72.9826 56.9123 72.976 57.881C72.935 65.0061 73.1821 72.1352 72.6085 79.2484C72.4975 80.6256 72.9099 81.6366 73.8152 82.6649C78.1965 87.6449 83.1237 92.05 88.0469 96.4683C88.8267 97.1688 90.7087 97.942 89.5642 99.158C88.6456 100.135 87.7085 98.4152 86.9116 97.7477C81.5906 93.2964 76.4823 88.6216 72.0072 83.2953C71.8023 83.0521 71.6226 82.7772 71.382 82.5777C70.8415 82.1309 70.8335 80.8013 69.9123 81.1873C69.0585 81.5454 69.0889 82.6741 69.1669 83.5782C69.4141 86.4396 70.3009 89.1582 71.0688 91.8994C72.9826 98.7324 75.2228 105.461 77.5159 112.423C81.1452 109.053 84.5088 105.723 88.1513 102.696C91.8044 99.6602 91.7991 99.5981 95.3663 102.689C98.9652 105.809 102.511 108.987 106.181 112.229C107.763 107.934 108.464 103.469 109.64 99.1355C109.716 98.8606 109.649 98.4641 109.495 98.2209C106.697 93.829 107.775 89.2613 109.014 84.7703C110.244 80.3084 111.674 75.8966 113.144 71.5048C115.456 64.5991 119.254 58.793 125.877 55.2694C129.49 53.3464 133.326 52.3909 137.455 53.1098C137.989 53.2024 138.713 53.0345 138.668 53.9213C138.632 54.6456 138.045 54.6245 137.535 54.5954C125.116 53.8949 118.776 61.2975 114.898 71.7691C112.938 77.061 111.452 82.5195 110.129 88.0123C110.072 88.2489 110.121 88.5119 110.121 89.071C112.843 79.5101 118.23 72.1841 126.055 66.6357C127.447 65.6498 129.009 64.9004 130.515 64.081C130.973 63.8312 131.608 63.2536 132.001 63.9316C132.42 64.6519 131.701 65.0193 131.142 65.3617C126.667 68.1001 122.663 71.4056 119.169 75.327C117.656 77.0267 116.393 78.6417 116.588 81.2719C117.036 87.2934 115.871 93.3373 116.488 99.3721C117.129 105.642 119.031 111.538 122.352 116.908C125.348 121.752 128.469 123.136 133.942 121.624C143.53 118.975 150.499 112.994 154.972 104.121C155.575 102.925 155.814 101.604 155.847 100.244C155.895 98.2434 155.227 96.8543 153.138 96.241C144.512 93.7087 139.119 87.6674 135.434 79.7889C133.66 75.9945 132.04 72.1101 129.366 68.8112C129.078 68.4557 128.761 68.0935 129.197 67.6587C129.661 67.1961 130.142 67.3983 130.553 67.7473C131.631 68.6619 132.489 69.7655 133.132 71.0197C135.01 74.6939 136.81 78.4105 138.745 82.0543C140.995 86.2929 144.154 89.7239 148.284 92.2179C148.718 92.4796 149.174 92.7069 149.629 92.9303C149.839 93.0334 150.071 93.0889 150.768 93.3294C148.625 91.1632 146.751 89.4239 145.178 87.3912C141.958 83.2306 139.889 78.4356 137.505 73.8124C136.187 71.255 134.687 68.8376 132.502 66.9133C132.072 66.534 131.475 66.0952 131.983 65.5242C132.393 65.0643 133.017 65.3484 133.548 65.6458C135.296 66.6212 136.252 68.3143 137.285 69.8831C140.087 74.1362 141.876 78.9418 144.478 83.3099C147.478 88.3441 151.392 92.58 156.665 95.0568C162.264 97.6869 169.327 96.8966 174.266 92.3263C174.695 91.9284 175.434 91.487 175.127 90.8103C174.87 90.2446 174.093 90.4786 173.551 90.4825C172.154 90.4931 170.739 90.468 169.362 90.6636C161.085 91.8372 154.586 88.7221 149.359 82.4799C146.367 78.9061 144.264 74.7402 141.672 70.8994C139.848 68.1953 137.934 65.585 134.725 64.344C134.33 64.1907 133.779 64.0691 134.042 63.4413C134.291 62.8465 134.772 62.5412 135.419 62.7659C136.816 63.251 138.02 64.0347 139.1 65.0643C142.838 68.6328 145.118 73.2203 147.908 77.4589C151.327 82.6517 155.35 87.1638 161.746 88.7102C164.233 89.3115 166.736 89.5759 169.3 89.1027C171.176 88.7578 173.077 88.6097 174.997 88.9071C175.49 88.9838 176.21 89.3274 176.51 88.6071C176.77 87.9833 176.501 87.3661 176.092 86.8347C174.734 85.069 173.014 84.0434 170.718 84.0883C168.236 84.1359 165.775 84.0011 163.359 83.3138C158.759 82.0054 155.372 78.9933 152.276 75.5504C149.302 72.2436 146.848 68.4953 143.629 65.3934C141.82 63.6488 139.826 62.2452 137.337 61.6306C136.923 61.5288 136.216 61.6108 136.358 60.7834C136.49 60.0089 137.058 59.9719 137.654 60.0036C139.177 60.0856 140.423 60.8614 141.647 61.6584C145.613 64.2422 148.387 67.9825 151.283 71.6118C155.092 76.387 159.17 80.8199 165.606 81.9737C167.229 82.2644 168.849 82.6107 171.069 82.4376C169.734 81.8098 168.839 81.3829 167.94 80.9679C162.683 78.5466 159.033 74.3344 155.526 69.9307C152.634 66.3014 149.692 62.684 145.522 60.3949C143.788 59.4433 141.965 58.7256 139.914 58.8089C139.489 58.826 138.759 59.0877 138.758 58.2617C138.755 57.5652 139.267 57.3616 139.928 57.3061C142.807 57.0682 145.295 58.148 147.633 59.627C151.458 62.0456 154.348 65.4502 157.054 68.9883C161.02 74.1732 165.499 78.6127 171.84 80.8714C174.358 81.7675 176.631 83.2226 177.837 85.9096C178.562 84.9923 178.258 84.0579 178.396 83.2015C178.475 82.7125 178.048 81.8772 178.88 81.8204C179.793 81.7582 179.909 82.5684 179.944 83.3099C180.023 84.995 179.762 86.6444 178.969 88.1141C178.36 89.2428 178.393 90.1151 178.969 91.2782C182.122 97.6407 180.685 103.514 176.731 108.982C175.394 110.83 173.691 112.41 172.324 114.238C169.677 117.782 170.33 119.87 174.416 121.515C175.234 121.844 176.086 122.177 176.79 122.69C179.308 124.522 178.84 128.511 176 129.801C175.714 129.93 175.422 130.13 175.152 129.801C174.896 129.489 175.067 129.247 175.293 128.984C175.62 128.599 175.944 128.199 176.195 127.764C177.383 125.705 176.971 124.506 174.781 123.601C174.137 123.335 173.469 123.126 172.83 122.846C168.943 121.135 167.912 117.633 170.367 114.117C171.49 112.507 172.841 111.054 174.107 109.546C176.649 106.521 178.511 103.181 178.969 99.1791C179.276 96.5014 178.618 94.0642 177.282 91.7751C176.818 92.2033 176.47 92.5523 176.095 92.8681C175.184 93.6347 175.047 94.2387 175.749 95.4546C177.242 98.0411 176.818 100.926 175.827 103.579C173.145 110.752 168.138 115.284 160.387 116.326C159.135 116.494 158.874 116.888 158.859 118.041C158.759 126.046 162.229 132.048 168.873 136.373C174.882 140.287 181.53 142.497 188.475 143.97C194.512 145.251 200.057 147.403 203.781 152.728C205.699 155.47 206.817 158.568 207.78 161.735C210.438 170.478 211.942 179.47 213.481 188.448C214.805 196.179 215.999 203.933 217.212 211.682C217.643 214.434 217.947 217.205 218.339 219.962C218.437 220.651 218.456 221.375 217.689 221.514C216.833 221.67 216.977 220.813 216.897 220.31C216.013 214.677 215.216 209.028 214.263 203.407C211.965 189.847 209.854 176.261 206.312 162.928C203.637 152.86 197.399 147.267 187.251 145.443C180.02 144.142 173.199 141.602 167.06 137.399C161.919 133.879 158.724 129.125 157.463 123.048C157.35 122.501 157.375 121.991 156.764 121.608C153.408 119.504 151.356 116.669 152.206 111.878C148.97 115.433 145.851 118.154 142.151 120.166C138.541 122.127 134.805 123.642 130.644 123.804C129.989 123.831 129.587 123.987 129.3 124.578C125.632 132.099 118.63 134.684 111.265 136.68C105.573 138.222 99.6789 138.727 93.9204 139.925C86.5772 141.453 82.6757 146.548 80.3773 153.264C78.2335 159.53 77.1326 166.028 76.0805 172.526C74.1086 184.713 72.2107 196.914 70.4093 209.126C69.2449 217.024 68.3118 224.955 67.2624 232.871C67.1765 233.514 67.3272 234.508 66.2963 234.384C65.3817 234.274 65.7557 233.353 65.7821 232.798C66.0584 227.149 67.0205 221.578 67.8096 215.99C68.9792 207.706 70.2335 199.433 71.4891 191.16C72.5438 184.204 73.6857 177.262 74.7232 170.303C75.614 164.333 76.8603 158.458 78.7067 152.703C81.617 143.629 87.772 138.558 97.2206 137.53C101.193 137.098 105.07 136.137 109.012 135.547C109.973 135.403 110.357 134.713 110.785 133.989C113.773 128.935 115.675 123.372 118.255 118.128C118.501 117.628 118.38 116.568 119.27 116.827C120.221 117.105 120.015 118.025 119.723 118.766C118.074 122.966 116.328 127.124 114.336 131.177C113.85 132.168 113.162 133.094 112.997 134.408C117.791 132.999 122.065 131.064 125.309 127.34C125.889 126.674 126.374 125.922 126.866 125.184C127.53 124.188 127.718 123.524 126.195 122.939C122.546 121.535 120.807 118.288 119.196 115.005C117.369 111.28 116.013 107.4 115.312 103.299C115.163 102.434 115.023 101.67 113.802 101.464C112.865 101.307 112.031 100.54 111.07 99.9985C108.866 111.192 105.345 122.019 102.009 132.895C101.706 133.881 101.931 135.933 100.264 135.427C98.8515 134.998 100.065 133.409 100.33 132.478C101.918 126.923 103.64 121.406 105.365 115.89C105.685 114.87 105.616 114.188 104.726 113.429C102.465 111.501 100.317 109.438 97.9845 107.299C97.1148 110.485 95.8632 113.421 95.6266 116.439C95.4244 119.007 96.4064 121.663 96.8386 124.285C97.2906 127.036 97.7466 129.786 98.1167 132.548C98.196 133.143 98.6123 134.125 97.6131 134.322C96.4091 134.56 96.5822 133.357 96.4672 132.744C95.6029 128.133 94.7358 123.518 94.0618 118.876C93.7922 117.016 92.9119 116.759 91.2797 116.802C89.3104 116.855 89.8933 118.212 89.7783 119.214C89.1122 125.012 88.1672 130.784 88.2068 136.647C88.2174 138.244 86.7239 138.566 85.734 138.916C84.7335 139.27 84.6013 137.934 84.3502 137.234C78.3644 120.553 72.2755 103.904 67.8809 86.7052C67.6959 85.9823 67.5611 85.2461 67.4144 84.5668C66.9042 84.387 66.7324 84.7293 66.5659 84.9487C60.8999 92.3408 53.0915 96.59 44.6619 99.951C36.806 103.083 28.7742 105.664 20.5614 107.669C19.5741 107.91 19.249 108.47 18.941 109.273C15.1254 119.194 12.5547 129.485 10.033 139.779C7.14121 151.586 5.26972 163.597 3.22907 175.569C2.51669 179.749 2.13077 183.985 1.61267 188.197C1.53205 188.849 1.50165 189.638 0.699398 189.626C-0.294493 189.611 0.0544339 188.693 0.0795455 188.152C0.326697 182.818 1.21221 177.555 2.07658 172.303C4.01282 160.548 5.95435 148.789 8.8554 137.219C11.1736 127.974 13.6015 118.762 16.7946 109.766C17.5599 107.61 18.6714 106.393 21.0213 105.785C30.7474 103.27 40.2819 100.165 49.4583 95.9978C56.8397 92.6448 62.5573 87.3489 67.5571 81.1423C68.3171 80.1987 69.0057 79.1744 70.2295 78.7951C71.0252 78.5492 71.0754 77.9717 71.1005 77.3069C71.3437 70.947 71.4085 64.5872 71.1534 58.226C71.123 57.4608 70.9617 57.0206 70.1449 56.6797C69.3625 56.3532 68.6885 55.6633 68.0911 55.0183C65.3499 52.0631 63.5485 43.3956 66.7641 39.461C67.1382 39.0024 67.1659 38.5147 67.1342 37.8895C66.8646 32.5566 66.3161 27.2171 66.6557 21.8829C66.9901 16.624 68.4532 11.7074 72.7777 8.20496C76.5141 5.17835 80.7817 4.2479 85.4604 5.46912C85.9045 5.58542 86.7371 5.48894 86.4953 6.44451C86.2706 7.33134 85.6362 7.00092 85.126 6.89784C75.0073 4.84793 68.7149 13.1229 68.4255 21.7613C68.2616 26.658 68.4307 31.5574 68.74 36.4489C68.7704 36.9287 68.4479 37.7402 69.3268 37.8261C72.9852 38.1803 73.7914 40.8659 74.3412 44.0313L74.3359 44.0379ZM174.934 99.109C174.997 97.9447 174.621 96.8741 174.299 95.7771C174.058 94.959 173.7 94.9299 173.096 95.3463C171.235 96.6322 169.128 97.3129 166.938 97.7107C166.296 97.827 166.132 98.1693 165.937 98.6412C164.863 101.232 162.993 103.065 160.444 104.155C159.571 104.528 159.385 105.033 159.382 105.898C159.376 108.051 159.312 110.208 159.167 112.356C159.003 114.777 159.154 114.958 161.594 114.576C168.321 113.523 174.851 105.953 174.936 99.1064L174.934 99.109ZM86.256 137.591C86.6935 131.405 87.201 125.807 87.8288 120.217C88.0006 118.692 88.7923 117.179 88.1236 115.553C87.0728 112.996 86.0419 110.426 85.3309 107.434C83.1237 109.472 81.1267 111.378 79.0556 113.198C78.2639 113.895 78.1146 114.539 78.4807 115.515C79.5036 118.241 80.4407 121 81.4055 123.749C82.9651 128.192 84.5207 132.637 86.2547 137.591H86.256ZM91.4925 115.233C92.8657 115.171 94.0433 115.457 94.4147 113.954C95.0081 111.555 95.6597 109.172 96.2584 106.775C96.3284 106.492 96.3377 106.031 96.1685 105.875C94.7742 104.583 93.4988 102.987 91.844 102.214C90.7034 101.681 89.9911 103.62 88.9562 104.279C88.6363 104.483 88.3892 104.823 88.0508 104.969C86.8455 105.493 86.8283 106.414 87.1693 107.45C87.8209 109.437 88.5227 111.407 89.1584 113.398C89.5827 114.723 90.3532 115.453 91.4925 115.231V115.233ZM156.781 119.316C157.819 114.973 158.034 105.222 157.087 103.596C156.904 106.361 155.914 108.799 154.698 111.181C152.995 114.521 153.736 117.304 156.781 119.316ZM114.559 90.3662C112.943 92.206 110.46 93.5343 111.008 96.3666C111.362 98.2011 112.787 99.1209 114.559 99.7302V90.3662ZM157.147 97.42C158.244 99.0258 158.686 100.536 159.193 102.015C159.392 102.593 159.575 102.968 160.226 102.592C161.664 101.76 162.944 100.753 163.706 99.228C164.086 98.4654 163.88 98.1323 162.952 98.0676C161.147 97.9433 159.352 97.675 157.147 97.4186V97.42ZM114.969 81.7609C114.363 81.897 114.335 82.2248 114.236 82.5182C113.359 85.1047 112.233 87.6225 110.672 89.8191C109.644 91.2663 109.544 92.58 109.783 94.1422C110.092 92.5245 110.885 91.0561 112.147 90.1957C114.889 88.3256 115.389 85.7919 114.976 82.8103C114.934 82.5023 114.971 82.1825 114.971 81.7622L114.969 81.7609Z" fill="#C4A867"/>
<path d="M102.56 234.613C103.608 233.794 103.468 232.606 103.599 231.466C104.923 219.936 102.556 208.981 98.4521 198.298C98.2869 197.87 98.2631 197.262 97.4991 197.025C95.9501 204.355 94.4316 211.666 92.831 218.959C92.6103 219.964 92.7887 221.866 91.4908 221.636C90.3053 221.426 90.9873 219.666 91.1842 218.641C92.7517 210.482 94.2822 202.312 96.6559 194.333C96.8528 193.673 96.6189 193.1 96.3916 192.494C95.4096 189.877 94.4593 187.249 93.5037 184.621C93.2553 183.937 92.6433 183.044 93.5725 182.627C94.6047 182.162 94.7686 183.297 95.0157 183.944C98.1468 192.189 101.567 200.337 103.694 208.927C104.241 211.136 104.673 213.383 104.984 215.637C105.146 216.813 105.569 217.648 106.541 218.301C109.766 220.47 111.541 223.666 112.606 227.274C112.936 228.393 113.136 228.688 114.342 228.204C116.922 227.168 116.967 227.261 116.082 224.672C114.831 221.018 115.036 217.424 116.48 213.872C117.13 212.27 117.723 212.196 118.812 213.578C121.343 216.788 121.275 221.621 118.644 225.506C117.384 227.366 117.664 228.005 119.848 228.471C120.804 228.675 120.63 227.857 120.858 227.458C122.635 224.372 126.408 222.712 129.827 223.544C131.249 223.89 132.341 224.713 133.246 225.832C133.463 226.102 133.619 226.601 134.099 226.395C134.573 226.191 134.322 225.79 134.27 225.417C133.76 221.691 132.87 218.104 130.935 214.811C130.295 213.723 130.103 212.408 130.196 211.115C130.225 210.706 130.058 210.111 130.565 209.932C131.173 209.718 131.447 210.31 131.725 210.704C132.581 211.919 133.055 213.299 133.314 214.748C133.602 216.364 133.849 217.987 134.253 219.598C134.929 216.812 135.595 214.061 135 211.169C134.461 208.545 135.045 206.119 136.642 203.953C136.894 203.612 137.063 203.073 137.622 203.235C138.103 203.374 138.181 203.85 138.269 204.301C138.776 206.928 138.05 209.34 136.994 211.692C136.419 212.972 135.872 214.25 136.089 216.087C137.497 214.318 138.668 212.67 140.366 211.575C140.87 211.25 141.407 210.507 142.005 211.04C142.704 211.664 142.005 212.338 141.633 212.876C141.241 213.445 140.745 213.962 140.226 214.425C137.935 216.459 135.732 218.547 135.058 221.856C137.421 219.986 139.759 218.135 142.097 216.284C142.395 216.049 142.67 215.765 143 215.592C143.407 215.379 143.786 214.659 144.275 215.146C144.775 215.646 144.293 216.229 143.954 216.669C142.937 217.996 141.685 219.061 140.219 219.874C138.887 220.611 137.511 221.287 136.248 222.129C134.037 223.6 134.066 224.78 136.269 226.092C139.174 227.822 142.124 229.494 143.697 232.71C144.044 233.421 144.474 233.299 145.087 233.031C146.419 232.447 147.104 231.317 147.703 230.122C148.897 227.737 150.019 225.314 151.213 222.928C153.109 219.139 156.108 216.666 160.195 215.516C160.813 215.342 161.491 215.1 162.01 215.567C162.542 216.046 162.053 216.674 161.892 217.161C160.52 221.291 157.437 223.879 153.761 225.837C151.611 226.983 149.488 228.079 148.429 230.747C150.892 230.04 152.885 228.798 154.866 227.536C156.152 226.716 157.406 225.844 158.709 225.054C159.085 224.826 159.579 224.263 160.027 224.88C160.38 225.367 159.994 225.839 159.707 226.262C158.734 227.69 157.328 228.533 155.754 229.112C153.55 229.924 151.323 230.671 149.113 231.468C148.235 231.783 147.317 232.054 146.538 233.01C150.154 233.815 151.563 236.173 151.271 239.786C152.046 239.164 151.919 238.478 152.081 237.892C152.343 236.954 152.762 236.111 153.65 235.596C154.028 235.377 154.43 235.039 154.849 235.44C155.188 235.766 154.931 236.142 154.781 236.487C154.415 237.334 154.057 238.184 153.62 239.211C154.984 238.866 155.646 237.887 156.473 237.167C157.858 235.961 159.387 235.144 161.254 235.068C161.632 235.052 162.085 234.99 162.224 235.443C162.355 235.87 161.999 236.165 161.675 236.343C160.589 236.942 159.48 237.497 158.404 238.154C161.349 237.578 164.299 237.309 167.28 237.48C167.845 237.512 168.409 237.627 168.962 237.753C169.333 237.839 169.762 238.015 169.736 238.467C169.695 239.153 169.117 238.938 168.71 238.944C166.312 238.98 163.896 238.783 161.342 239.372C162.34 240.386 163.726 240.64 164.494 242.135C161.6 241.634 159.23 240.019 156.145 239.791C157.738 241.417 159.915 241.627 161.207 243.316C157.746 244.191 155.062 240.964 151.652 241.713C151.824 242.115 151.843 242.285 151.915 242.31C152.992 242.696 154.707 243.191 154.442 244.183C154.123 245.374 152.585 244.189 151.572 244.285C150.912 244.349 150.285 243.686 149.427 244.16C151.284 245.465 153.468 245.323 155.437 245.876C157.143 246.357 158.869 246.772 160.569 247.276C161 247.403 161.77 247.454 161.606 248.135C161.44 248.821 160.741 248.503 160.301 248.41C157.649 247.847 155.007 247.236 152.083 246.578C153.231 248.469 153.97 250.188 152.083 252.161C153.969 252.072 155.374 251.212 156.867 252.034C155.917 253.225 154.38 253.282 152.704 254.22C155.569 254.246 157.844 254.587 160.069 253.487C163.302 251.887 166.738 251.032 170.38 251.238C170.904 251.269 171.736 251.135 171.777 251.865C171.818 252.586 171.005 252.309 170.565 252.4C167.35 253.069 164.131 253.706 160.49 254.438C164.913 255.699 168.965 255.803 173.071 255.279C175.534 254.963 178.007 254.812 180.461 255.407C180.894 255.511 181.474 255.591 181.475 256.098C181.478 256.747 180.825 256.55 180.43 256.596C174.505 257.272 168.584 257.609 162.405 256.221C165.134 258.123 167.874 259.499 170.043 261.657C170.692 262.303 171.958 263.169 171.341 263.884C170.571 264.775 169.513 263.628 168.755 263.059C166.572 261.419 164.488 259.649 162.307 258.005C159.806 256.119 157.061 254.919 153.814 255.412C153.794 255.539 153.715 255.702 153.765 255.769C155.962 258.759 155.795 259.647 152.761 261.723C151.631 262.496 150.216 262.876 149.181 264.325C154.164 264.505 158.999 262.767 163.741 264.697C162.173 265.605 160.412 265.14 158.75 265.313C157.049 265.49 155.337 265.563 153.604 265.831C156.863 267.269 160.22 268.26 163.803 268.436C167.228 268.604 170.113 269.847 172.02 272.849C173.139 274.611 172.818 275.178 170.743 275.274C167.417 275.427 164.654 274.081 162.294 271.909C158.194 268.136 152.886 267.112 147.878 265.395C147.75 265.351 147.562 265.485 147.203 265.6C152.167 269.331 155.009 274.53 158.07 279.562C159.601 282.079 160.355 284.784 160.038 287.751C159.977 288.323 160.03 288.99 159.422 289.239C158.827 289.481 158.314 289.037 157.899 288.655C155.281 286.249 154.803 283.191 155.485 279.912C155.722 278.767 155.642 277.841 155.076 276.868C152.61 272.624 149.577 268.855 145.669 265.774C146.755 267.583 147.816 269.41 148.934 271.199C150.912 274.369 151.514 277.932 151.9 281.543C152.087 283.286 151.662 283.581 150.136 282.772C148.178 281.733 146.242 280.632 144.616 279.062C140.47 283.812 135.83 283.097 130.928 280.43C133.581 282.255 136.086 284.173 138.598 286.085C138.9 286.317 139.254 286.496 139.51 286.77C139.977 287.271 141.155 287.592 140.444 288.507C139.799 289.335 139.188 288.334 138.715 287.996C135.833 285.944 133.004 283.817 129.905 281.939C131.535 284.205 133.159 286.474 134.795 288.735C135.428 289.61 136.143 290.432 136.717 291.343C137.071 291.905 138.154 292.498 137.252 293.236C136.253 294.052 135.997 292.754 135.628 292.277C132.991 288.865 130.424 285.398 127.612 282.016C128.434 284.466 129.236 286.923 130.086 289.364C130.732 291.22 131.488 293.04 132.084 294.91C132.242 295.402 133.037 296.13 132.131 296.55C131.206 296.979 130.946 296.067 130.715 295.444C129.395 291.881 128.112 288.303 126.815 284.732C126.67 284.331 126.518 283.932 126.091 283.558C126.091 286.046 126.08 288.533 126.093 291.02C126.105 293.311 126.149 295.6 126.163 297.89C126.167 298.468 126.518 299.309 125.468 299.302C124.58 299.297 124.826 298.502 124.792 297.992C124.462 293.107 124.491 288.213 124.296 283.274C123.11 286.586 121.931 289.901 120.737 293.209C120.371 294.223 119.953 295.217 119.572 296.225C119.382 296.73 119.163 297.239 118.503 296.986C117.767 296.706 118.157 296.176 118.317 295.716C119.774 291.521 121.236 287.326 122.679 283.126C122.796 282.788 123.085 282.451 122.867 282.057C119.934 285.858 117.002 289.662 114.065 293.463C113.742 293.881 113.536 294.679 112.796 294.178C112.069 293.685 112.694 293.201 112.978 292.741C115.087 289.331 117.84 286.397 120.386 282.794C116.53 284.511 113.622 286.962 110.52 289.105C110.084 289.407 109.709 290.149 109.115 289.479C108.547 288.838 109.187 288.472 109.636 288.131C111.455 286.751 113.28 285.378 115.102 284.001C113.638 282.674 112.261 282.81 110.512 283.681C107.183 285.341 103.579 285.099 100.087 284.173C96.3546 283.183 94.5888 280.351 93.8619 276.596C92.6209 277.542 91.923 278.968 89.7899 279.497C91.9296 275.948 94.5108 273.289 96.1801 269.972C95.6673 269.67 95.2748 270.359 94.7805 270.58C91.2477 272.152 88.2395 274.432 85.6015 277.262C83.0639 279.983 79.8959 281.445 76.1331 281.526C75.4366 281.54 74.641 281.693 74.2656 280.971C73.9206 280.304 74.5577 279.807 74.8841 279.279C76.9116 275.992 80.1166 274.632 83.6904 273.826C85.8936 273.329 88.1603 272.985 90.3701 271.641C86.7685 270.784 83.286 271.156 79.9078 270.445C84.7623 267.93 89.8718 270.831 95.1109 269.81C94.0892 269.029 93.2976 268.442 92.527 267.831C90.5842 266.288 89.6352 264.155 89.1119 261.82C88.9374 261.038 88.6704 260.753 87.8589 260.832C84.8349 261.13 82.2207 262.032 80.3902 264.742C79.1135 266.63 77.7654 268.641 74.8987 269.04C75.8992 265.718 78.5306 264.073 80.9347 262.005C77.9041 262.028 75.537 262.852 73.7845 265.185C72.5263 266.859 71.1491 268.452 69.7508 270.014C68.4053 271.515 66.7493 272.565 64.7192 272.9C64.2897 272.972 63.7544 273.06 63.4702 272.663C63.1041 272.15 63.494 271.683 63.8245 271.314C65.4884 269.459 67.3995 267.898 69.4957 266.547C71.013 265.569 72.7404 264.858 74.0925 263.157C71.7425 263.026 69.9305 263.928 68.1436 264.743C64.209 266.539 60.2745 266.435 56.287 265.023C55.8284 264.861 55.1451 264.866 55.1358 264.24C55.1266 263.604 55.831 263.601 56.2738 263.428C60.7463 261.67 65.3919 261.183 70.1261 261.787C74.8788 262.392 79.3923 261.031 84.0182 260.15C80.0003 259.71 75.9811 259.27 71.8351 258.817C72.262 257.679 73.1131 257.807 73.7991 257.733C77.5949 257.321 81.2678 258.03 84.9037 259.027C85.6385 259.228 86.3601 259.57 87.1042 259.622C87.7519 259.667 88.6942 260.242 89.0326 259.121C89.3498 258.07 88.6387 257.664 87.7955 257.356C85.4839 256.512 83.1155 255.858 80.6056 255.296C82.756 253.802 86.795 254.558 89.5943 256.895C90.1322 255.978 90.6648 255.071 91.3005 253.99C88.8409 253.399 86.4249 253.27 84.0049 253.165C79.4333 252.968 74.9608 251.82 70.3733 251.756C69.9755 251.751 69.3371 251.772 69.3953 251.138C69.4468 250.574 70.0548 250.634 70.4698 250.592C73.5334 250.288 76.5587 250.839 79.5998 251.027C80.8567 251.105 82.111 251.213 83.3494 251.306C83.4551 250.646 83.0031 250.544 82.752 250.287C81.5519 249.059 81.8572 247.083 83.434 246.383C86.1117 245.192 88.8832 244.667 91.7605 245.657C92.1808 245.801 92.564 246.056 93.0253 245.822C93.0491 245.365 92.6856 245.173 92.3975 244.954C87.6792 241.35 82.5762 239.548 76.6036 241.405C74.6304 242.018 72.5963 242.11 70.713 240.948C70.3389 240.717 69.8393 240.518 69.8962 239.998C69.9609 239.42 70.5015 239.201 70.9799 239.046C73.2188 238.32 75.4829 238.438 77.7495 238.91C79.8959 239.357 82.0436 239.801 84.4715 240.306C82.341 237.263 81.1356 234.312 81.8757 230.548C83.6151 231.814 84.2164 233.531 84.9024 235.179C85.0953 235.643 85.287 236.154 85.2856 236.643C85.279 240.069 87.588 241.421 90.5895 242.502C89.6841 241.163 88.7497 240.077 88.1616 238.829C87.6065 237.652 86.9285 235.681 88.0479 235.176C89.1171 234.694 89.7423 236.664 90.1665 237.782C90.6371 239.022 90.9278 240.341 91.1763 241.65C91.4036 242.848 91.9799 243.742 93.1508 244.56C93.0108 243.406 93.0623 242.429 93.2434 241.462C93.3319 240.984 93.1905 240.296 93.8593 240.243C94.5954 240.185 94.6985 240.858 94.8162 241.434C94.877 241.732 95.0144 242.013 95.1889 242.498C96.5475 240.769 97.7569 239.082 100.144 239.347C100.314 239.366 100.662 239.1 100.687 238.932C100.929 237.293 102.232 236.133 102.619 234.567L102.566 234.607L102.56 234.613ZM106.267 263.836C106.054 261.915 104.861 260.727 104.756 259.096C106.169 260.449 106.608 262.289 107.988 264.028C108.084 261.887 108.16 260.193 108.236 258.497C108.297 258.5 108.358 258.504 108.419 258.506C108.608 260.123 108.795 261.739 108.998 263.472C109.71 262.786 109.118 261.742 109.898 261.222C110.269 261.796 109.74 262.498 110.255 263.114C111.396 261.961 111.983 260.446 113.119 259.277C112.532 260.764 111.944 262.249 111.333 263.797C112.988 263.317 113.815 261.683 115.47 261.13C115.274 261.842 114.371 261.878 114.546 262.631C116.564 262.574 118.529 262.635 119.4 260.148C119.736 259.188 120.756 258.431 121.781 258.036C122.888 257.609 122.935 256.965 122.67 255.955C121.992 253.37 119.924 251.566 116.881 251.18C113.808 250.79 110.656 250.926 107.716 249.696C106.14 249.038 104.639 249.276 103.149 250.079C101.74 250.839 100.243 251.183 98.5895 251.23C93.8342 251.368 89.5665 257.36 90.8313 261.94C92.5997 268.343 97.5903 270.358 103.887 267.156C103.053 265.974 101.336 266.597 100.375 265.473C101.887 265.113 103.284 266.151 104.754 265.52C104.163 264.385 103.084 264.22 102.163 263.933C101.225 263.641 100.403 263.289 99.7816 262.532C101.384 263.156 103 263.587 104.84 263.819C104.07 262.083 102.562 261.049 101.81 259.508C103.496 260.559 104.656 262.128 106.268 263.84L106.267 263.836ZM129.337 269.316C129.387 269.332 129.437 269.349 129.489 269.365C129.108 270.829 128.727 272.294 128.278 274.024C130.262 273.056 130.923 271.211 132.489 270.314C131.704 271.625 130.917 272.937 129.975 274.512C131.511 273.881 132.72 273.384 133.929 272.887C133.959 272.955 133.988 273.021 134.015 273.088C133.072 273.721 132.127 274.354 131.027 275.092C131.625 275.294 131.903 275.389 132.251 275.507C131.48 275.783 130.57 275.501 130.045 276.313C131.247 277.237 132.684 277.51 134.227 278.239C132.474 278.451 131.17 277.442 129.633 277.706C131.173 279.301 135.284 281.054 137.387 281.07C141.418 281.099 143.734 278.77 143.685 274.742C143.669 273.471 143.734 272.196 143.637 270.932C143.393 267.754 141.952 265.236 139.21 263.56C137.099 262.27 134.975 260.99 132.784 259.846C129.516 258.143 126.095 258.011 122.657 259.318C120.766 260.037 119.69 261.665 119.809 263.61C120.059 267.721 123.071 270.344 125.279 273.444C125.341 272.541 125.405 271.637 125.467 270.734C125.562 270.721 125.657 270.708 125.752 270.695C126.002 271.838 126.252 272.981 126.58 274.481C127.605 272.561 128.472 270.938 129.339 269.315L129.337 269.316ZM130.023 253.095C131.109 251.92 131.055 250.436 131.738 248.903C131.738 250.241 131.724 251.193 131.745 252.145C131.754 252.596 131.22 253.264 131.966 253.44C132.515 253.57 132.748 252.886 132.982 252.458C133.537 251.443 134.047 250.403 134.576 249.373C134.458 250.474 134.071 251.462 133.733 252.465C133.586 252.897 133.061 253.439 133.747 253.785C134.277 254.051 134.888 254.359 135.508 253.79C136.036 253.305 136.652 252.914 137.228 252.481C137.384 252.651 137.54 252.822 137.696 252.992C137.135 253.377 136.459 253.665 136.038 254.166C135.282 255.066 135.777 255.255 137.881 254.747C137.941 254.733 138.029 254.84 138.113 254.894C136.377 255.906 136.397 255.959 137.194 257.348C137.49 257.864 138.789 258.16 137.65 259.242C137.355 259.523 137.883 260.859 138.973 260.917C141.207 261.037 143.431 261.045 145.493 259.967C147.749 258.788 148.415 257.173 147.689 254.728C147.265 253.298 146.38 252.105 145.066 251.622C143.111 250.901 142.426 249.536 142.228 247.669C142.175 247.17 142.002 246.676 141.828 246.202C139.704 240.395 132.868 238.898 129.02 243.279C126.228 241.342 123.229 240.781 119.998 241.747C118.141 242.303 116.897 243.615 116.72 245.56C116.543 247.51 117.2 249.19 119.116 250.151C120.77 250.979 122.264 252.034 123.65 253.276C124.595 254.124 125.653 254.922 127.296 254.856C126.245 253.115 125.791 251.378 125.581 249.52C126.449 251.027 127.317 252.532 128.294 254.227C129.44 251.213 127.521 248.651 127.711 245.657C129.023 248.121 129.243 250.615 130.021 253.095H130.023ZM133.225 229.402C132.612 226.69 130.9 225.175 128.229 224.939C125.783 224.72 123.72 225.606 122.3 227.676C120.904 229.711 121.572 231.83 122.233 233.898C122.689 235.326 124.014 235.285 125.195 235.532C126.646 235.836 125.834 234.798 125.888 234.186C127.604 235.6 129.649 236.401 130.516 238.761C130.734 237.426 130.348 236.358 130.771 235.259C131.336 236.111 130.652 237.28 131.56 237.863C132.338 236.577 131.799 234.921 133.008 233.251C132.563 235.203 132.215 236.719 132.678 238.397C133.406 237.933 133.242 237.502 133.307 237.147C133.382 236.736 133.508 236.379 134.167 235.985C133.623 237.083 133.614 237.936 134.031 238.981C134.372 238.561 134.571 238.32 134.765 238.077C134.942 237.856 134.987 237.475 135.408 237.549C135.517 239.244 136.019 239.532 137.485 238.802C138.213 238.438 138.764 237.698 139.72 237.587C139.311 238.581 138.124 238.782 137.917 239.791C138.913 240.308 139.695 239.346 140.517 239.534C140.369 240.319 139.454 239.912 139.2 240.602C141.33 242.159 143.159 243.989 143.43 246.683C143.623 248.595 144.237 249.844 146.121 250.546C147.323 250.994 148.091 252.104 148.679 253.275C148.899 253.712 149.109 254.231 149.799 253.661C151.34 252.388 152.092 249.673 151.307 247.932C150.516 246.18 148.346 245.197 146.163 245.609C145.852 245.668 145.551 245.822 145.242 245.83C144.938 245.839 144.515 246.17 144.278 245.574C145.869 244.764 147.609 244.216 148.607 242.585C149.885 240.497 150.441 238.22 149.119 236.103C147.892 234.136 145.831 234.271 143.845 235.085C143.334 235.294 142.999 235.207 142.869 234.609C142.243 231.715 140.017 230.223 137.733 228.79C136.053 227.736 134.551 227.942 133.228 229.407L133.225 229.402ZM122.283 276.31C120.581 275.803 118.947 275.316 117.312 274.83C118.942 274.937 120.516 275.122 122.331 274.883C121.293 273.432 119.56 273.165 118.639 271.448C120.443 272.541 121.975 273.371 124.107 274.101C121.884 271.184 119.663 268.798 118.789 265.717C118.21 263.679 117.148 263.509 115.394 263.821C112.151 264.397 109.366 267.015 110.959 270.799C111.461 271.991 111.037 273.006 110.654 274.089C109.542 277.228 112.645 282.423 115.846 282.483C119.021 282.541 121.507 280.902 123.831 278.326C122.091 278.389 120.928 279.522 119.431 279.115C121.182 279.013 121.279 277.332 122.282 276.313L122.283 276.31ZM103.759 268.538C102.562 268.388 101.584 268.933 100.58 269.238C97.6075 270.139 95.6858 272.55 95.4995 275.431C95.3038 278.451 96.7484 280.931 99.7142 282.219C103.111 283.697 106.591 283.661 110.073 282.387C111.214 281.971 111.399 281.512 110.588 280.507C108.74 278.217 108.195 275.628 109.352 272.85C109.718 271.97 109.41 271.24 109.195 270.467C108.957 269.611 108.542 269.406 107.959 270.244C107.285 271.213 106.601 272.175 105.922 273.14C105.871 273.104 105.818 273.067 105.766 273.031C106.159 272.003 106.551 270.973 107.088 269.566C105.499 270.399 104.85 271.659 103.679 272.522C103.934 271.176 105.085 270.499 105.438 269.183C103.763 269.824 102.429 270.672 100.63 271.042C101.795 270.079 103.185 269.867 103.759 268.536V268.538ZM111.485 239.986C111.612 240.721 111.852 241.311 112.294 241.769C112.598 242.083 113.103 242.141 113.059 241.566C112.934 239.949 113.301 238.131 112.18 236.804C109.688 233.852 104.175 234.595 102.35 238.014C101.875 238.902 101.628 239.891 102.1 240.75C103.189 242.731 104.952 244.093 106.666 245.728C106.983 244.467 106.115 243.84 106.112 242.674C107.03 243.544 107.947 245.16 108.38 242.675C108.424 242.429 109.459 242.505 109.41 241.714C111.716 243.16 110.676 240.658 111.484 239.986H111.485ZM107.223 247.917C107.352 247.696 107.483 247.476 107.613 247.255C106.334 246.133 105.052 245.015 103.778 243.887C102.684 242.92 101.631 241.901 100.494 240.985C99.7499 240.385 98.8499 240.183 98.0965 240.989C96.9017 242.268 96.1206 243.745 95.8907 245.535C95.5774 247.975 99.0997 251.156 101.65 249.368C103.248 248.249 105.108 247.476 107.223 247.917ZM121.021 234.753C120.258 230.217 118.782 228.733 115.718 229.107C113.666 229.358 112.595 230.89 111.581 232.428C111.234 232.954 110.425 233.482 110.999 234.239C111.46 234.848 112.22 235.32 112.986 235.176C115.455 234.71 117.834 234.71 120.09 235.986C120.122 236.005 120.245 235.863 120.336 235.788C119.007 234.875 117.904 233.769 117.249 232.177C118.413 232.972 119.578 233.766 121.022 234.752L121.021 234.753ZM150.386 281.278C150.352 277.017 145.95 267.044 143.39 265.429C145.107 268.398 145.826 271.494 145.399 274.678C145.043 277.332 146.163 278.868 148.264 280.045C148.916 280.41 149.556 280.796 150.384 281.278H150.386ZM141.328 262.492C142.58 262.958 143.792 263.309 144.911 263.851C146.058 264.406 147.066 264.201 147.898 263.435C149.714 261.76 151.442 259.989 153.472 258.564C153.934 258.239 154.024 257.892 153.663 257.463C152.881 256.536 152.048 255.665 150.785 255.421C149.895 255.25 149.274 255.443 149.353 256.546C149.554 259.36 147.759 260.653 145.462 261.446C144.159 261.896 142.781 262.132 141.329 262.491L141.328 262.492ZM115.971 249.613C115.737 248.251 115.504 247.133 115.361 246.005C115.183 244.589 114.325 243.809 113.017 243.653C111.597 243.483 110.076 243.188 109.036 244.691C107.849 246.404 108.536 248.381 110.521 249.022C112.246 249.578 114.027 249.318 115.971 249.614V249.613ZM119.624 240.095C122.489 239.509 125.076 239.612 127.485 241.077C127.924 241.344 128.479 241.882 128.977 241.22C129.362 240.71 129.449 240.11 129.202 239.431C128.472 237.423 126.559 236.437 123.553 236.606C121.218 236.737 120.154 237.634 119.622 240.095H119.624ZM115.301 243.537C115.914 242.258 117.158 241.844 117.914 240.912C118.742 239.888 118.921 237.321 118.187 236.639C117.703 236.19 114.381 236.522 113.823 237.075C112.741 238.146 113.614 242.296 115.302 243.537H115.301ZM111.817 229.818C110.601 225.705 108.703 222.31 105.572 219.357C105.261 224.611 107.68 228.754 111.817 229.818ZM151.637 225.243C155.159 223.205 158.768 221.247 160.446 216.694C156.111 218.428 153.491 221.422 151.637 225.243ZM105.446 227.448C105.446 228.927 105.363 229.937 105.469 230.927C105.58 231.963 104.459 233.364 105.623 233.915C106.476 234.32 107.817 233.736 108.93 233.531C109.67 233.395 110.15 232.835 110.392 232.177C110.687 231.372 109.956 231.057 109.448 230.749C108.099 229.932 107.007 228.8 105.448 227.448H105.446ZM91.5516 246.628C89.051 246.437 86.865 247.006 84.7953 248.064C84.1503 248.393 83.0348 248.636 83.3943 249.525C83.7062 250.299 84.7504 249.73 85.4019 249.609C87.4519 249.227 89.4806 248.719 91.5027 248.204C92.4239 247.969 94.15 248.539 94.1368 247.497C94.1144 245.683 92.3182 247.025 91.553 246.628H91.5516ZM84.7979 251.008C89.6775 252.906 94.117 252.419 96.2515 249.744C92.3552 249.528 88.6678 249.888 84.7979 251.008ZM75.7075 279.925C80.1325 279.904 82.9476 277.837 85.7932 275.159C81.7238 275.295 78.7341 276.986 75.7075 279.925ZM136.223 260.051C135.915 257.413 134.922 255.906 133.016 255.281C131.697 254.849 130.349 254.762 129.338 255.942C128.98 256.36 128.454 257.216 129.671 257.239C132.231 257.285 134.145 258.778 136.223 260.051ZM117.746 214.66C116.536 217.991 116.68 221.173 117.476 224.689C119.102 221.263 120.226 218.128 117.746 214.66ZM162.085 269.805C164.868 271.928 167.319 273.676 170.836 273.845C168.718 270.561 165.696 270.009 162.085 269.805ZM67.4167 263.203C64.4615 263.168 61.5565 263.31 58.2893 264.181C61.8433 265.522 64.6624 264.516 67.4167 263.203ZM156.893 280.717C156.826 282.894 156.767 285.069 158.437 287.149C158.838 284.561 157.846 282.644 156.893 280.717ZM69.2116 268.374C68.0445 269.324 66.8788 270.273 65.7118 271.223C67.3533 270.847 68.3829 269.697 69.2116 268.374ZM136.861 206.105C136.373 207.334 135.94 208.527 136.127 210.284C136.833 208.66 137.293 207.45 136.861 206.105Z" fill="#C4A867"/>
<path d="M176.208 59.756C180.931 67.4785 183.772 75.9292 186.133 84.5504C188.158 91.9425 189.386 99.5024 190.613 107.064C192.115 116.322 193.215 125.629 194.245 134.947C194.251 135.01 194.276 135.072 194.274 135.134C194.246 135.951 194.864 137.194 193.647 137.371C192.402 137.552 192.74 136.136 192.678 135.493C192.051 128.919 191.143 122.38 190.216 115.846C187.918 99.6213 185.4 83.4402 178.666 68.2926C176.121 62.5672 172.856 57.2871 168.611 52.656C164.859 48.5628 160.282 46.0794 154.661 45.7212C153.773 45.6644 152.883 45.6128 151.999 45.5203C151.53 45.4714 150.813 45.6776 150.747 44.9864C150.684 44.3203 151.376 44.3084 151.859 44.2145C154.025 43.7942 156.166 44.0824 158.278 44.5568C165.219 46.1164 170.46 50.384 175.172 55.3958C181.259 61.8693 185.395 69.5971 189.069 77.5945C196.236 93.1967 201.927 109.373 207.621 125.544C215.776 148.707 223.929 171.87 231.198 195.332C231.874 197.512 232.423 199.73 233.017 201.933C233.174 202.516 233.58 203.241 232.615 203.487C231.665 203.73 231.648 202.861 231.475 202.313C229.514 196.071 227.664 189.793 225.62 183.579C218.968 163.36 212.038 143.236 204.877 123.192C198.915 106.501 193.105 89.7445 185.222 73.8198C182.741 68.8081 180.006 63.9391 176.208 59.7547V59.756Z" fill="#C4A867"/>
<path d="M108.351 23.8397C104.966 22.2959 101.685 22.5867 98.4729 24.3868C97.2913 25.049 96.3569 26.0019 95.4159 26.9522C95.0722 27.2998 94.7061 27.876 94.159 27.4214C93.5827 26.9429 93.9449 26.3746 94.3044 25.9147C96.9754 22.5008 100.577 20.9346 104.806 21.1884C110.283 21.5162 114.534 24.1582 117.609 28.7258C118.636 30.251 119.724 31.7591 120.952 33.123C124.095 36.6162 127.735 36.221 130.128 32.182C130.543 31.4828 130.776 30.6753 131.089 29.9167C131.288 29.4356 131.626 29.2228 132.142 29.3893C132.648 29.5519 132.565 29.9682 132.493 30.3317C131.477 35.4743 127.094 39.1617 121.27 35.8509C120.233 35.2615 119.783 34.1473 118.764 32.9472C119.349 35.0077 119.761 36.6862 120.303 38.3211C121.41 41.6623 123.892 42.5214 126.848 40.6195C128.543 39.5278 129.749 37.9934 130.737 36.2514C130.969 35.8443 131.118 34.9443 131.898 35.3765C132.376 35.6421 132.208 36.2778 132.023 36.7761C130.793 40.0922 126.499 44.1721 122.649 43.013C122.25 42.8928 121.907 42.7487 121.878 43.362C121.701 47.167 120.841 50.8769 120.098 55.1406C121.261 54.0793 122.005 53.2731 122.871 52.6308C127.054 49.5302 131.479 47.1591 136.956 48.5297C138.195 48.8403 139.326 49.4363 140.136 50.4976C140.407 50.8531 140.756 51.1743 140.31 51.6461C139.956 52.0215 139.643 51.855 139.308 51.6303C133.624 47.8107 128.746 50.2941 124.157 53.7635C117.585 58.7303 114.47 65.9651 111.532 73.3571C108.907 79.9602 104.568 84.9997 97.3125 86.8434C91.4535 88.3316 86.5092 86.7681 82.5363 82.2744C79.8295 79.2134 77.7347 75.7216 75.9319 72.0619C75.6821 71.5544 75.2142 71.031 75.4891 70.3028C76.3813 70.6015 76.4209 71.3931 76.7104 71.9747C78.8396 76.2582 81.8054 79.8544 85.5589 82.8017C90.2455 86.4826 95.2493 86.5077 100.375 83.8815C105.146 81.4365 108.095 77.3578 110.007 72.4875C112.079 67.2061 114.298 62.0133 117.819 57.4958C118.899 56.112 118.451 54.4375 118.745 52.9097C119.331 49.8632 119.691 46.7732 120.177 43.7056C120.268 43.132 120.467 42.5478 120.115 42.0456C118.189 39.2926 118.134 35.9144 117.018 32.8917C116.733 32.1199 116.478 31.3375 116.195 30.563C113.935 24.3644 108.063 24.556 104.056 27.2614C103.898 27.3672 103.753 27.4954 103.613 27.6236C103.187 28.0121 102.651 28.5567 102.158 28.032C101.502 27.3355 102.366 26.8874 102.764 26.5121C104.325 25.0424 106.161 24.1027 108.347 23.8397H108.351Z" fill="#C4A867"/>
<path d="M187.771 199.915C184.796 207.619 181.063 214.77 177.425 221.945C173.035 230.607 173.094 239.083 177.223 247.704C177.552 248.391 177.831 249.103 178.134 249.802C178.361 250.325 178.758 251 178.168 251.355C177.483 251.767 177.24 250.941 176.927 250.514C176.665 250.159 176.471 249.751 176.26 249.36C171.2 240 171.075 230.603 175.909 221.094C181.441 210.218 186.573 199.155 191.101 187.82C191.218 187.525 191.37 187.245 191.508 186.958C191.763 186.427 192.179 186.169 192.742 186.395C193.452 186.679 193.145 187.197 192.956 187.666C191.913 190.258 190.91 192.866 189.807 195.432C189.336 196.528 189.22 197.507 189.587 198.689C192.171 206.977 194.361 215.368 195.807 223.937C196.281 226.747 196.674 229.571 197.036 232.398C197.117 233.026 197.455 234.02 196.533 234.201C195.533 234.396 195.651 233.354 195.537 232.736C194.517 227.192 193.595 221.628 192.498 216.099C191.496 211.052 190.006 206.126 188.374 201.246C188.238 200.838 188.018 200.459 187.769 199.915H187.771Z" fill="#C4A867"/>
<path d="M109.901 175.786C119.217 175.269 127.389 179.365 135.203 184.469C138.662 186.729 142.006 189.169 145.09 191.916C146.042 192.764 146.405 192.494 147.151 191.807C152.687 186.702 158.6 182.123 165.513 178.992C171.878 176.108 178.449 174.94 185.335 176.824C186.752 177.212 188.048 177.907 189.226 178.791C189.699 179.147 190.117 179.604 189.689 180.241C189.295 180.826 188.816 180.554 188.362 180.277C180.745 175.632 173.213 177.353 165.818 180.767C158.998 183.914 153.234 188.644 147.687 193.621C146.621 194.578 145.968 194.833 144.694 193.808C138.354 188.703 131.806 183.89 124.338 180.5C116.704 177.034 108.829 176.477 100.737 178.545C100.491 178.609 100.246 178.681 99.9964 178.726C99.4136 178.828 98.6298 179.386 98.3272 178.548C97.965 177.543 99.0528 177.494 99.6092 177.283C102.79 176.07 106.112 175.673 109.901 175.79V175.786Z" fill="#C4A867"/>
<path d="M101.851 0.0234647C114.492 -0.207827 126.048 8.65658 128.868 20.7366C128.969 21.1675 129.041 21.6049 129.103 22.0424C129.169 22.5142 129.114 22.9623 128.563 23.1063C127.979 23.2597 127.782 22.8473 127.643 22.3953C127.364 21.4847 127.104 20.5687 126.809 19.6634C122.938 7.7367 110.075 -0.154961 97.743 1.99671C87.3507 3.80871 85.1898 13.5428 88.7979 21.3908C89.5473 23.0204 90.606 24.4439 91.7875 25.784C92.0506 26.0827 92.5726 26.4092 92.1219 26.8995C91.7281 27.3291 91.288 27.0105 90.9179 26.7898C90.5954 26.5982 90.3033 26.3418 90.0271 26.084C84.7946 21.2071 84.0201 10.8122 88.4992 5.22686C91.3778 1.63589 95.3944 0.439789 99.7519 0.0313944C100.446 -0.0333672 101.15 0.0221418 101.849 0.0221418L101.851 0.0234647Z" fill="#C4A867"/>
<path d="M55.6012 96.4431C56.3889 96.8542 56.6241 97.6815 56.9598 98.4137C59.1855 103.259 61.3147 108.15 63.6144 112.959C68.6024 123.387 73.6789 133.772 78.7078 144.18C79.1479 145.092 79.5299 146.035 79.8986 146.98C80.0995 147.494 80.0493 148.04 79.5074 148.307C78.803 148.653 78.6404 147.962 78.4356 147.565C77.4443 145.647 76.4967 143.707 75.5345 141.775C68.6275 127.896 61.8844 113.939 55.576 99.7763C55.2668 99.0812 54.9588 98.378 54.7368 97.6524C54.528 96.9691 54.8861 96.5687 55.6025 96.4431H55.6012Z" fill="#C4A867"/>
<path d="M177.952 78.3517C177.648 79.1183 178.584 80.7149 177.076 80.7347C175.819 80.7505 176.322 79.1844 176.291 78.3702C176.004 71.2002 174.077 64.6091 169.741 58.803C165.441 53.0485 159.714 49.7906 152.601 48.9156C152.02 48.8442 150.998 49.1337 151.018 48.342C151.039 47.4922 152.062 47.3534 152.815 47.4208C156.187 47.7169 159.467 48.3988 162.463 50.0668C170.223 54.3833 174.654 61.1529 176.772 69.597C177.483 72.4333 177.803 75.3344 177.953 78.3504L177.952 78.3517Z" fill="#C4A867"/>
<path d="M64.2461 243.429C64.1272 243.639 64.0545 243.903 63.8813 244.048C63.3963 244.455 63.0593 243.98 62.7354 243.75C59.118 241.169 55.4333 238.671 51.9242 235.951C44.2929 230.037 36.7568 223.999 29.5987 217.51C28.9405 216.914 28.3219 216.273 27.6981 215.638C27.3294 215.264 26.9805 214.832 27.4007 214.31C27.9519 213.625 28.4541 214.186 28.8414 214.514C30.393 215.825 31.9142 217.175 33.4262 218.534C42.4598 226.649 52.067 234.044 61.8328 241.244C62.6839 241.872 63.6646 242.384 64.2461 243.43V243.429Z" fill="#C4A867"/>
<path d="M145.016 53.1174C151.783 53.3883 156.624 56.6647 160.753 61.239C162.85 63.5638 164.542 66.1834 165.699 69.1029C165.942 69.7162 166.724 70.6413 165.766 71.1171C164.785 71.6048 164.575 70.4484 164.247 69.847C162.727 67.0543 161.2 64.2802 158.986 61.9448C155.346 58.1053 151.154 55.3166 145.74 54.747C144.656 54.6333 143.586 54.6241 142.513 54.8065C142.008 54.8924 141.301 55.0298 141.187 54.4536C141.051 53.7597 141.812 53.6262 142.347 53.4954C143.336 53.2535 144.336 53.0605 145.016 53.116V53.1174Z" fill="#C4A867"/>
<path d="M102.613 234.573C96.6443 230.701 94.2481 224.417 96.3311 218.038C96.5214 217.453 96.5848 216.559 97.2166 216.466C97.9448 216.36 98.3479 217.193 98.7154 217.757C100.771 220.91 101.945 224.357 100.636 228.019C99.8388 230.247 100.693 231.614 101.957 233.103C102.308 233.516 103.193 233.773 102.565 234.609C102.56 234.613 102.613 234.573 102.613 234.573ZM97.469 220.947C97.3078 220.99 97.1399 221.006 97.1346 221.042C96.8122 223.548 97.3091 225.845 98.796 227.887C98.4999 225.539 98.2779 223.182 97.469 220.948V220.947ZM99.1898 226.256C99.5692 224.141 99.2784 222.11 98.3598 220.167C98.7444 222.181 99.0008 224.211 99.1898 226.256Z" fill="#C4A867"/>
<path d="M169.513 257.733C174.306 260.091 179.791 259.629 184.672 261.602C185.371 261.885 186.661 262.028 186.443 262.927C186.234 263.79 184.976 263.473 184.22 263.367C182.415 263.114 180.635 262.682 178.507 262.254C179.709 263.58 181.33 263.9 182.124 265.207C180.009 265.685 175.273 262.931 169.513 257.734V257.733Z" fill="#C4A867"/>
<path d="M143.911 283.457C144.069 282.659 143.468 281.315 144.39 280.982C145.117 280.719 146.021 281.767 146.63 282.49C148.792 285.052 150.594 287.789 150.414 291.35C150.377 292.095 150.411 292.997 149.631 293.371C148.817 293.762 148.179 293.046 147.642 292.592C144.856 290.236 144.131 286.996 143.91 283.457H143.911ZM148.675 291.346C149.021 288.128 147.215 285.88 145.051 283.269C145.736 286.546 146.564 289.235 148.675 291.346Z" fill="#C4A867"/>
<path d="M101.328 234.504C94.8502 236.226 89.0904 231.869 89.4208 225.619C89.4485 225.089 89.2384 224.274 90.0512 224.261C90.9645 224.245 90.5601 225.123 90.6156 225.593C90.868 227.74 91.8896 229.208 93.9303 230.08C95.8507 230.9 97.7711 231.739 99.5712 232.833C100.302 233.278 100.803 233.831 101.328 234.505V234.504ZM97.7393 233.33C96.2961 232.691 94.8528 232.052 93.021 231.241C94.5383 232.715 95.9472 233.431 97.7393 233.33Z" fill="#C4A867"/>
<path d="M106.419 85.1553C106.722 85.2148 107.068 85.2108 107.215 85.5624C107.392 85.9866 107.13 86.2986 106.893 86.5893C105.491 88.3115 104.13 90.0706 102.657 91.7306C100.335 94.3475 97.6536 96.593 94.9958 98.8557C94.553 99.2324 94.1076 99.6857 93.5393 99.1015C92.9868 98.5345 93.3318 98.1116 93.8102 97.6781C97.9536 93.9259 101.987 90.068 105.504 85.7025C105.737 85.4131 105.942 85.0509 106.419 85.1553Z" fill="#C4A867"/>
<path d="M119.388 143.983C124.223 143.922 128.998 144.501 133.718 145.531C134.211 145.638 135.062 145.62 134.98 146.337C134.884 147.168 134.071 147.066 133.442 146.954C127.135 145.832 120.778 145.219 114.374 145.076C113.956 145.067 113.367 145.207 113.404 144.529C113.437 143.912 114.013 143.991 114.44 143.987C116.09 143.975 117.739 143.982 119.388 143.982V143.983Z" fill="#C4A867"/>
<path d="M186.721 252.467C186.526 252.373 186.236 252.324 186.112 252.155C185.915 251.884 185.963 251.526 186.227 251.298C186.709 250.886 187.205 250.484 187.73 250.129C191.572 247.53 195.417 244.936 199.274 242.361C199.815 242 200.498 241.251 201.072 242.077C201.66 242.924 200.679 243.276 200.16 243.639C196.258 246.374 192.424 249.209 188.289 251.594C187.796 251.878 187.295 252.148 186.72 252.467H186.721Z" fill="#C4A867"/>
<path d="M82.1105 238.192C79.6641 237.581 77.2587 237.033 75.0409 235.937C73.5025 235.177 72.3923 233.997 71.8795 232.311C71.5504 231.23 71.9231 230.898 72.991 231.153C75.4744 231.748 77.6367 232.876 79.2266 234.924C80.1201 236.073 81.0756 237.157 82.1092 238.191L82.1105 238.192ZM76.7379 235.007C75.9159 233.946 74.9035 233.204 73.139 232.65C74.4052 233.99 75.3687 234.811 76.7379 235.007Z" fill="#C4A867"/>
<path d="M35.3309 199.871C34.7851 204.585 34.2392 209.298 33.6934 214.012C33.6233 214.618 33.7581 215.493 32.833 215.382C32.0387 215.286 32.34 214.478 32.3691 213.954C32.6665 208.58 33.3749 203.249 34.0542 197.915C34.119 197.403 34.0952 196.755 34.7547 196.771C35.4723 196.788 35.3005 197.503 35.3217 197.962C35.3494 198.593 35.2767 199.228 35.2477 199.861C35.2754 199.864 35.3032 199.868 35.3309 199.871Z" fill="#C4A867"/>
<path d="M166.352 147.92C163.942 147.92 161.531 147.949 159.122 147.895C158.646 147.884 157.82 148.036 157.838 147.17C157.855 146.36 158.59 146.429 159.136 146.424C163.64 146.381 168.143 146.355 172.647 146.339C173.023 146.339 173.399 146.442 173.772 146.516C174.15 146.592 174.539 146.683 174.54 147.185C174.54 147.888 173.98 147.767 173.581 147.769C171.171 147.789 168.762 147.778 166.352 147.778C166.352 147.825 166.352 147.872 166.352 147.918V147.92Z" fill="#C4A867"/>
<path d="M85.6994 241.916C83.1089 243.261 81.2995 244.936 78.8479 245.347C77.9822 245.492 76.9116 245.868 76.5125 244.814C76.0592 243.621 77.1495 243.199 78.0311 242.834C80.3255 241.885 82.6913 241.453 85.6994 241.916Z" fill="#C4A867"/>
<path d="M126.148 213.583C128.752 216.651 131.06 219.91 132.849 223.52C129.973 220.649 126.291 218.341 126.148 213.583Z" fill="#C4A867"/>
<path d="M109.495 28.2039C112.232 28.4867 114.192 29.8824 115.445 32.3156C115.647 32.7081 115.934 33.1469 115.464 33.5064C115.005 33.8566 114.607 33.5566 114.331 33.1865C112.729 31.0349 110.722 29.6643 107.921 29.7343C107.719 29.7396 107.415 29.5718 107.327 29.3986C107.164 29.0722 107.444 28.8158 107.665 28.599C108.189 28.0809 108.878 28.414 109.495 28.2052V28.2039Z" fill="#C4A867"/>
<path d="M126.631 44.0632C125.183 45.9704 123.922 47.6291 122.495 49.5098C122.278 46.2863 123.889 44.1135 126.631 44.0632Z" fill="#C4A867"/>
</svg>
