<svg width="225" height="234" viewBox="0 0 225 234" fill="none" xmlns="http://www.w3.org/2000/svg">
<path d="M167.903 65.5927C168.108 65.0879 168.312 64.5816 168.591 63.891C151.032 60.9995 138.049 51.5058 128.634 36.4207C128.453 37.0356 128.314 37.3846 128.248 37.7463C127.579 41.4572 127.313 45.1966 127.484 48.9632C127.574 50.938 127.67 52.9129 127.822 54.8834C127.912 56.0632 127.7 57.1614 127.247 58.2368C125.884 61.4671 123.968 64.3686 121.946 67.21C121.493 67.8463 121.055 68.4956 120.523 69.2635C121.094 69.6224 121.527 69.9498 122.006 70.1844C122.823 70.5819 123.672 70.9122 124.501 71.2869C125.86 71.8989 126.581 72.9671 126.622 74.4472C126.648 75.3939 126.535 76.3462 126.569 77.2915C126.584 77.6818 126.702 78.1909 126.968 78.4283C129.391 80.5976 130.139 83.4476 130.373 86.5249C130.427 87.2342 130.467 87.9478 130.585 88.647C130.919 90.6519 131.99 91.5714 134.051 91.6872C136.18 91.8059 138.222 91.3354 140.231 90.7163C143.648 89.6638 146.852 88.1165 150.007 86.4563C151.232 85.8114 152.451 85.1507 153.706 84.5701C156.488 83.2831 158.191 83.7279 159.705 86.3619C160.745 88.1694 161.594 90.1028 162.365 92.0447C163.475 94.8375 164.425 97.6918 165.462 100.513C167.105 104.986 169.164 109.253 171.849 113.202C173.988 116.35 175.567 119.727 176.101 123.532C176.232 124.457 176.336 125.387 176.599 126.369C179.257 122.745 182.316 119.579 185.717 116.739C189.106 113.908 192.838 111.654 197.014 110.136C197.008 110.041 197.002 109.947 196.997 109.852C196.622 109.679 196.253 109.494 195.873 109.335C191.52 107.523 187.744 104.948 184.896 101.119C182.707 98.178 181.603 94.816 181.149 91.2439C180.665 87.4344 180.481 83.602 180.762 79.7596C180.782 79.4894 180.83 79.222 180.879 78.8473C181.724 79.1204 182.493 79.3692 183.26 79.6166C182.925 83.7522 183.096 87.8076 183.759 91.8359C184.671 97.38 187.56 101.657 192.239 104.72C195.412 106.798 198.861 108.315 202.581 109.05C209.977 110.51 214.956 114.863 218.086 121.571C220.394 126.516 221.677 131.781 222.972 137.042C224.601 143.656 225.255 150.371 224.85 157.168C224.527 162.596 223.431 167.899 221.976 173.133C220.373 178.898 218.165 184.448 216.01 190.018C215.984 190.085 215.911 190.134 215.699 190.373C216.291 188.487 216.828 186.812 217.344 185.133C219.496 178.128 221.198 171.018 222.104 163.738C223.137 155.446 222.599 147.237 220.629 139.12C219.387 134.009 218.189 128.881 216.25 123.975C215.046 120.929 213.38 118.166 210.965 115.897C208.873 113.931 206.436 112.609 203.682 111.833C202.067 111.378 200.48 111.49 198.877 111.874C195.953 112.578 193.304 113.894 190.81 115.53C187.191 117.903 183.779 120.552 180.933 123.825C179.595 125.365 178.511 127.134 177.381 128.844C176.502 130.177 176.416 131.75 176.277 133.287C175.561 141.209 172.522 148.206 167.649 154.407C164.986 157.794 162.183 161.081 159.313 164.295C154.451 169.739 151.009 175.923 149.137 182.98C149.069 183.241 148.976 183.496 148.73 183.749C148.644 183.051 148.567 182.353 148.472 181.657C147.712 176.07 148.78 170.91 152.303 166.44C155.068 162.932 157.948 159.509 160.881 156.141C163.869 152.709 166.945 149.365 169.286 145.421C172.076 140.719 173.833 135.672 174.384 130.244C174.915 125.01 173.809 120.091 171.098 115.562C169.513 112.916 167.846 110.317 166.299 107.649C163.746 103.252 161.943 98.5183 160.211 93.7564C159.631 92.1591 158.992 90.5818 158.342 89.0103C158.072 88.3553 157.747 87.7118 157.371 87.1127C156.709 86.0573 156.091 85.8357 154.968 86.3805C153.26 87.2085 151.61 88.1508 149.924 89.0246C145.981 91.068 141.966 92.9327 137.566 93.775C136.522 93.9752 135.449 94.1311 134.39 94.1282C130.942 94.1182 128.917 92.3221 128.424 88.9245C128.305 88.1037 128.205 87.2757 128.164 86.4477C128.036 83.8937 127.188 81.6415 125.341 79.8469C124.483 79.0132 124.277 78.1494 124.483 76.9726C124.992 74.0625 124.863 73.941 122.118 72.6626C121.222 72.245 120.327 71.816 119.476 71.3155C117.809 70.336 117.625 69.282 118.711 67.689C120.137 65.5984 121.594 63.5249 122.91 61.367C123.791 59.9213 124.53 58.374 125.175 56.8068C125.475 56.0775 125.568 55.1723 125.468 54.3843C124.637 47.885 124.885 41.44 126.313 35.0465C126.496 34.23 126.403 33.5078 126.126 32.7371C125.522 31.0654 124.962 29.3766 124.44 27.6777C124.077 26.4951 124.371 25.5027 125.245 24.5389C133.876 15.0266 144.58 9.38667 157.221 7.38324C163.997 6.30931 170.78 6.33792 177.523 7.66639C182.097 8.56728 186.507 10.0101 190.344 12.7357C198.325 18.4071 203.566 25.9474 205.28 35.6814C205.715 38.1525 205.582 40.7236 205.702 43.249C205.722 43.6751 205.705 44.1041 205.705 44.6532C206.071 44.566 206.336 44.546 206.56 44.4416C208.798 43.3891 211.095 43.4034 213.384 44.1584C218.258 45.7658 221.488 49.0862 223.261 53.8624C224.963 58.4513 225.22 63.2046 224.767 68.0179C224.44 71.5042 223.59 74.8705 222.17 78.0851C219.222 84.7632 213.926 88.2767 206.883 89.4335C204.474 89.8297 202.072 89.7782 199.702 89.1747C194.656 87.8892 191.379 84.6731 189.628 79.8283C189.453 79.3464 189.326 78.8487 189.339 78.2653C189.561 78.6814 189.781 79.099 190.005 79.5137C192.352 83.8566 195.841 86.728 200.817 87.3157C208.568 88.2309 217.405 85.1178 220.746 75.4954C222.668 69.957 223.294 64.3185 221.914 58.5714C220.813 53.984 218.512 50.1573 214.404 47.6062C212.978 46.721 211.442 46.1204 209.761 45.9088C207.634 45.6413 205.955 46.2834 204.811 48.1696C203.391 50.5091 201.78 52.7012 199.839 54.6518C194.983 59.5323 189.09 62.3623 182.363 63.5449C178.568 64.2127 174.746 64.4758 170.906 64.0097C169.792 63.8738 168.98 64.1212 168.477 65.1679C168.379 65.3696 168.194 65.5283 168.049 65.7056L167.913 65.5927H167.903ZM169.888 62.6469C170.472 62.7656 170.883 62.8928 171.302 62.9257C175.953 63.2975 180.56 63.033 185.057 61.7445C192.691 59.5566 198.668 55.1994 202.604 48.1882C203.819 46.0217 204.171 43.7809 203.78 41.3342C202.812 35.271 200.727 29.6411 197.427 24.4674C192.644 16.9685 185.987 12.1108 177.24 10.2361C171.301 8.96339 165.321 8.8733 159.305 9.61689C151.699 10.5578 144.6 12.9531 138.012 16.8698C133.892 19.3194 130.34 22.4354 127.135 25.9803C126.528 26.6524 126.359 27.2988 126.689 28.1311C127.024 28.9762 127.244 29.8699 127.623 30.6936C135.602 48.0738 149.02 58.6071 167.716 62.471C168.159 62.5625 168.628 62.5382 169.076 62.5668C169.22 62.2407 169.35 62.0348 169.403 61.8103C169.984 59.3607 170.147 56.884 169.742 54.3929C169.611 53.5793 169.418 52.7542 169.109 51.992C168.295 49.9842 167.077 48.4027 164.67 48.2582C164.53 48.2497 164.394 48.151 164.224 48.0809C166.024 46.7439 168.57 47.0942 169.898 48.979C170.517 49.8556 170.952 50.9366 171.199 51.9877C171.86 54.8019 171.317 57.5675 170.569 60.2959C170.371 61.0152 170.154 61.7288 169.89 62.644L169.888 62.6469Z" fill="#C4A867"/>
<path d="M5.5768 222.216C5.06486 220.191 4.53434 218.17 4.04242 216.141C2.53377 209.908 1.39979 203.603 0.717677 197.23C0.0984893 191.448 -0.15892 185.649 0.0999095 179.819C0.576098 169.089 2.45082 158.615 5.49957 148.335C8.25375 139.049 12.0804 130.21 16.5205 121.614C19.668 115.522 23.4646 109.827 26.9781 103.957C29.2732 100.124 31.341 96.156 33.5232 92.2564C33.9093 91.5672 34.3126 90.8822 34.7845 90.2516C35.7054 89.0203 36.632 88.7544 38.1192 89.2062C38.6025 89.3535 39.083 89.5108 39.5964 89.6753C39.7694 89.4107 39.9382 89.2334 40.0154 89.0218C41.2938 85.5326 42.5136 82.0219 43.8478 78.5542C44.6157 76.5565 44.0737 74.6503 43.689 72.7327C42.7796 68.2168 41.2366 63.8939 39.4663 59.6554C37.8961 55.8973 36.07 52.2409 34.6243 48.4385C31.6628 40.6436 31.7443 32.8115 34.8946 25.0595C35.6596 23.1776 36.725 21.4702 38.1378 19.9901C39.532 18.5287 41.1579 17.4419 43.1027 16.8728C43.7848 16.674 44.2825 16.368 44.5485 15.6358C47.1768 8.39861 52.4706 4.0028 59.612 1.61184C64.424 0.00166909 69.3732 -0.241435 74.3853 0.186134C80.5801 0.713803 86.5288 2.33971 92.3661 4.36602C98.342 6.43951 104.281 8.62597 110.202 10.851C112.623 11.7605 114.821 13.119 116.635 15.008C119.257 17.7408 120.347 20.9611 119.467 24.6948C118.665 28.1025 115.804 30.452 112.313 30.5921C111.142 30.6393 109.961 30.4091 108.784 30.3033C108.562 30.2833 108.341 30.2461 107.959 30.196C108.057 30.7251 108.11 31.1427 108.216 31.5474C109.505 36.4394 109.962 41.4272 109.928 46.4708C109.928 46.6682 109.952 46.8741 109.909 47.0628C109.423 49.2164 110.091 51.1297 111.151 52.9473C112.922 55.9874 114.698 59.0262 116.514 62.0406C118.196 64.8305 118.032 65.7657 115.346 67.6104C114.304 68.3269 113.257 69.0476 112.156 69.6653C110.184 70.7707 109.43 72.4896 109.639 74.6303C109.769 75.9573 109.593 77.0656 108.741 78.1624C107.604 79.6253 107.507 81.4571 107.351 83.2389C107.209 84.8519 107.115 86.4749 106.873 88.0737C106.237 92.2965 103.268 94.257 98.9355 93.8323C95.0245 93.449 91.4009 92.0791 87.8573 90.4832C86.3801 89.8183 84.9544 89.0389 83.4987 88.3282C83.0468 88.108 82.5692 87.9407 81.9672 87.6919C81.6983 88.2095 81.4352 88.6314 81.2493 89.0833C79.3846 93.6192 77.5656 98.1738 75.6609 102.693C74.8801 104.546 73.9192 106.323 72.9925 108.234C74.3639 110.169 73.8763 112.255 73.2356 114.333C72.5721 116.486 71.8828 118.633 71.1678 120.771C70.939 121.454 70.9247 122.02 71.3509 122.664C75.7996 129.376 79.4361 136.535 82.848 143.809C88.9899 156.907 93.9877 170.44 97.9846 184.338C100.49 193.051 102.375 201.903 103.61 210.89C104.564 217.831 105.219 224.793 105.283 231.804C105.288 232.277 105.283 232.751 105.205 233.227C105.026 231.544 104.893 229.855 104.658 228.18C103.91 222.858 103.27 217.515 102.329 212.227C99.1185 194.201 93.5029 176.884 86.7033 159.918C81.7055 147.45 75.9941 135.335 69.1215 123.785C68.3751 122.531 68.2149 121.357 68.6868 119.963C69.5348 117.454 70.194 114.882 71.032 112.369C71.4095 111.234 71.1378 110.453 70.2112 109.814C68.4208 108.58 66.6777 107.267 64.8244 106.133C56.3717 100.965 47.4356 96.728 38.4638 92.5667C38.3208 92.4995 38.1735 92.4395 38.0263 92.3823C36.9151 91.9518 36.7178 92.0047 36.1387 93.0658C34.2639 96.5035 32.485 99.997 30.5202 103.382C28.0578 107.622 25.3694 111.732 22.9141 115.977C17.0211 126.17 11.8988 136.726 8.25089 147.953C5.34656 156.892 3.25735 166.017 2.25063 175.368C1.51704 182.182 1.39263 189.011 1.89027 195.858C2.42366 203.204 3.43323 210.48 4.80174 217.711C5.03769 218.954 5.34657 220.182 5.61541 221.419C5.66975 221.671 5.69978 221.927 5.73982 222.182C5.68548 222.193 5.63114 222.204 5.5768 222.214V222.216ZM71.215 106.481C71.8085 105.214 72.3891 104.097 72.8667 102.937C74.7757 98.291 76.6404 93.6278 78.5495 88.9817C78.8941 88.1452 79.2945 87.3129 79.7964 86.5622C80.6616 85.268 81.8699 84.9334 83.3257 85.4911C83.8776 85.7028 84.4025 85.9873 84.9373 86.2433C86.6862 87.077 88.4079 87.9765 90.1896 88.7329C93.0725 89.9556 96.0283 90.958 99.1715 91.294C102.33 91.6315 104.222 90.2444 104.65 87.1313C104.886 85.411 104.936 83.665 105.109 81.9347C105.292 80.1072 105.612 78.2968 106.932 76.8997C107.478 76.322 107.627 75.78 107.556 74.9978C107.26 71.7689 108.318 69.1706 111.249 67.5018C112.177 66.9741 113.078 66.3964 113.966 65.8029C114.378 65.5269 114.728 65.1594 115.22 64.7362C114.613 63.7523 114.066 62.8486 113.503 61.9562C111.581 58.9132 109.558 55.9317 108.159 52.5883C107.663 51.4029 107.428 50.1974 107.448 48.8975C107.485 46.4465 107.524 43.9869 107.36 41.5431C107.079 37.3889 106.214 33.3249 105.159 29.3008C104.996 28.6802 104.887 28.0453 104.721 27.2617C105.571 27.7779 106.223 28.2255 106.919 28.5887C109.37 29.8686 111.913 30.053 114.48 29.0063C117.362 27.8294 118.895 25.0051 118.454 21.9178C118.19 20.0831 117.372 18.5473 116.09 17.2374C114.538 15.653 112.678 14.4975 110.631 13.7411C103.586 11.1356 96.5345 8.53589 89.4318 6.09346C84.3767 4.35458 79.1844 3.10333 73.8276 2.66575C69.3289 2.29824 64.8801 2.52418 60.583 3.99994C54.0279 6.25075 49.1702 10.3791 46.712 17.0029C46.356 17.9638 45.8684 18.4987 44.8616 18.7189C44.1838 18.8676 43.5346 19.2323 42.9226 19.5855C40.5116 20.9797 38.8642 23.0732 37.6216 25.5185C36.296 28.1283 35.5838 30.9053 35.3221 33.8125C34.8502 39.0491 35.2335 44.1685 37.3999 49.0405C38.2193 50.8838 39.1188 52.6913 39.9253 54.5389C42.5222 60.4934 44.8588 66.538 46.1672 72.9315C46.2287 73.2332 46.3717 73.5177 46.5333 73.9696C52.1017 74.2571 55.8983 71.2126 59.2974 67.3659C56.4017 72.0363 52.7252 75.6156 46.928 76.1118C46.1329 81.3813 43.9908 86.0574 41.9244 90.9036C51.9387 95.6241 61.8729 100.23 71.2136 106.481H71.215Z" fill="#C4A867"/>
<path d="M117.146 217.212C117.198 217.345 117.248 217.476 117.299 217.609C117.376 217.619 117.454 217.629 117.531 217.639C117.815 216.756 118.143 215.882 118.379 214.984C119.433 210.958 119.993 206.844 120.534 202.727C121.066 198.679 121.274 194.622 121.034 190.538C120.97 189.444 120.518 188.3 121.203 187.235C121.063 183.947 120.685 180.693 119.823 177.508C119.484 176.258 118.553 175.427 117.645 174.606C116.274 173.365 115.645 171.794 115.483 169.998C115.466 169.815 115.514 169.624 115.542 169.336C116.743 169.647 117.689 170.222 118.227 171.232C118.779 172.27 119.32 173.367 119.57 174.502C120.191 177.318 120.771 180.153 121.127 183.012C121.443 185.555 121.446 188.137 121.563 190.703C121.603 191.562 121.569 192.424 121.569 193.285C121.659 193.298 121.749 193.312 121.839 193.325C121.932 193.105 122.081 192.89 122.111 192.662C122.78 187.444 123.482 182.214 123.265 176.947C123.093 172.806 122.577 168.681 122.22 164.546C122.09 163.038 121.359 161.839 120.251 160.876C119.148 159.916 117.975 159.037 116.854 158.097C115.13 156.651 113.414 155.194 111.716 153.717C111.405 153.447 111.193 153.061 110.926 152.715C111.645 152.322 113.653 152.508 116.947 153.272C116.896 152.748 116.849 152.26 116.786 151.609C117.153 151.729 117.449 151.777 117.694 151.914C119.275 152.8 120.406 154.115 121.026 155.798C121.473 157.015 121.738 158.3 122.072 159.559C122.193 160.011 122.275 160.471 122.376 160.927C122.457 160.924 122.54 160.923 122.622 160.92C122.622 160.287 122.669 159.647 122.614 159.018C122.004 151.947 120.259 145.159 117.554 138.604C117.202 137.751 116.739 137.422 115.805 137.365C114.758 137.301 113.696 137.035 112.702 136.683C111.25 136.17 109.835 135.542 108.44 134.887C107.046 134.232 105.622 133.907 104.074 134.03C103.198 134.1 102.308 134.023 101.2 134.01C101.698 132.414 103.013 132.14 104 131.391C104.219 129.248 105.989 129.852 107.531 129.682C107.192 129.369 106.957 129.19 106.769 128.971C106.178 128.29 105.473 127.667 105.057 126.889C104.433 125.725 104.957 125.051 106.261 125.162C106.65 125.194 107.032 125.322 107.415 125.413C107.752 125.493 108.087 125.585 108.396 125.665C108.658 124.93 108.718 124.086 109.17 123.687C109.626 123.284 110.471 123.321 111.234 123.145C112.106 121.789 113.262 121.361 114.704 121.861C115.013 121.401 115.247 120.666 115.652 120.554C116.082 120.437 116.674 120.912 117.303 121.173C117.349 120.766 117.371 120.387 117.439 120.016C117.582 119.243 118.219 118.951 118.826 119.456C119.237 119.798 119.56 120.284 119.814 120.764C120.697 122.433 121.086 124.255 121.277 126.111C121.506 128.335 121.362 130.533 120.661 132.678C120.095 134.411 119.087 135.851 117.72 137.161C117.878 137.645 118.016 138.13 118.194 138.601C120.089 143.603 121.741 148.672 122.418 154.009C122.825 157.196 122.966 160.388 122.609 163.593C122.553 164.093 122.634 164.617 122.71 165.121C123.628 171.25 123.675 177.399 123.441 183.584C123.337 186.322 122.745 188.994 122.7 191.696C122.666 193.771 121.901 195.617 121.599 197.589C121.037 201.263 120.498 204.94 119.942 208.613C119.724 210.05 119.483 211.486 119.254 212.922C119.335 212.956 119.417 212.99 119.498 213.025C119.66 212.673 119.877 212.334 119.973 211.965C120.512 209.893 121.759 208.19 122.945 206.493C126.149 201.899 130.741 199.58 136.182 198.769C136.338 198.746 136.498 198.743 136.656 198.748C136.72 198.749 136.781 198.798 136.924 198.859C136.237 199.19 135.604 199.498 134.968 199.799C129.454 202.397 125.39 206.48 122.773 211.951C121.17 215.303 119.767 218.75 118.273 222.154C116.999 225.055 115.623 227.902 113.768 230.491C113.497 230.87 113.198 231.23 112.816 231.723C112.816 231.453 112.785 231.339 112.82 231.252C114.505 227.14 115.702 222.88 116.744 218.57C116.856 218.111 117.02 217.667 117.159 217.215L117.152 217.209L117.146 217.212Z" fill="#C4A867"/>
<path d="M136.146 157.733C135.356 157.095 134.629 156.512 133.837 155.874C133.51 156.147 133.201 156.332 132.988 156.593C131.768 158.096 130.478 159.556 129.401 161.158C128.756 162.118 128.354 163.28 128.023 164.404C126.527 169.491 125.359 174.657 124.452 179.882C124.439 179.958 124.41 180.031 124.226 180.078C124.606 177.962 124.93 175.834 125.381 173.733C126.006 170.836 126.691 167.95 127.429 165.08C127.694 164.054 127.665 163.146 127.12 162.24C125.71 159.898 125.453 157.246 125.1 154.621C125.091 154.556 125.154 154.48 125.25 154.248C126.374 155.308 127.213 156.495 127.544 157.919C127.86 159.28 127.917 160.702 128.106 162.239C129.874 159.831 131.545 157.557 133.288 155.183C133.142 154.92 132.956 154.581 132.767 154.245C130.222 149.721 130.399 145.102 132.307 140.43C132.424 140.141 132.602 139.867 132.8 139.624C133.55 138.706 134.608 138.637 135.32 139.576C135.835 140.254 136.195 141.071 136.518 141.869C136.796 142.555 136.923 143.303 137.165 144.204C137.511 143.925 137.745 143.693 138.02 143.523C138.851 143.006 139.646 142.375 140.548 142.042C141.939 141.528 142.606 142.062 142.749 143.558C142.767 143.746 142.803 143.935 142.855 144.278C143.479 144.061 144.014 143.854 144.561 143.686C145.799 143.309 146.294 143.762 146.023 145.046C145.935 145.467 145.75 145.866 145.577 146.37C146.444 146.688 147.21 147.135 147.133 148.321C147.595 148.348 147.975 148.38 148.357 148.39C149.697 148.428 150.279 149.009 150.352 150.352C150.414 151.464 150.037 152.448 149.533 153.405C149.405 153.645 149.291 153.891 149.079 154.32C149.877 154.424 150.567 154.487 151.244 154.61C151.875 154.724 152.763 154.609 152.883 155.451C152.99 156.206 152.178 156.439 151.628 156.684C148.389 158.122 145.018 159.117 141.472 159.365C140.13 159.459 138.788 159.23 137.556 158.595C137.28 158.452 136.993 158.331 136.558 158.128C135.978 158.924 135.31 159.658 134.855 160.504C133.846 162.382 132.865 164.284 132.008 166.236C129.893 171.058 128.181 176.03 126.673 181.072C126.517 181.593 126.421 182.129 126.297 182.659C126.381 182.698 126.467 182.738 126.551 182.777C126.7 182.461 126.843 182.143 126.999 181.83C129.109 177.596 131.775 173.809 135.745 171.096C138.557 169.175 141.662 168.083 145.095 168.159C146.068 168.181 147.042 168.45 147.995 168.685C148.382 168.781 148.715 169.089 149.24 169.399C148.682 169.964 148.27 170.427 147.812 170.839C145.02 173.35 141.645 174.803 138.181 176.079C136.401 176.734 134.613 177.376 132.807 177.959C130.429 178.727 128.586 180.137 127.489 182.386C126.244 184.942 125.097 187.546 123.913 190.131C123.767 190.45 123.66 190.786 123.402 191.082C123.44 190.873 123.465 190.662 123.514 190.456C125.084 183.905 127.442 177.606 129.681 171.271C131 167.542 132.526 163.889 134.47 160.432C134.97 159.545 135.542 158.701 136.145 157.735L136.146 157.733Z" fill="#C4A867"/>
<path d="M117.156 217.217C117.367 215.533 117.617 213.852 117.78 212.164C118.159 208.233 118.54 204.306 118.217 200.339C118.008 197.775 117.393 195.35 116.228 193.076C114.045 188.823 111.807 184.599 109.608 180.355C108.39 178.005 107.199 175.64 106.004 173.279C105.867 173.007 105.783 172.707 105.587 172.191C106.152 172.265 106.561 172.268 106.938 172.378C110.738 173.497 113.493 175.922 115.481 179.281C116.978 181.813 117.662 184.619 118.016 187.493C118.301 189.801 118.42 192.134 118.54 194.459C118.646 196.509 118.671 198.566 118.696 200.621C118.76 205.969 118.27 211.273 117.373 216.542C117.334 216.771 117.226 216.99 117.151 217.213L117.158 217.219L117.156 217.217Z" fill="#C4A867"/>
<path d="M122.106 204.119C123.103 200.236 123.937 196.237 126.233 192.871C126.72 192.542 127.279 192.285 127.679 191.873C130.1 189.373 132.996 188.979 136.202 189.861C136.269 189.879 136.322 189.954 136.341 189.968C134.636 190.609 132.86 191.156 131.193 191.939C129.52 192.725 127.939 193.718 126.352 194.677C125.3 195.313 124.653 196.283 124.283 197.473C123.588 199.698 122.836 201.904 122.108 204.119H122.106Z" fill="#C4A867"/>
<path d="M138.11 182.213C136.263 183.224 134.514 184.276 132.681 185.151C131.371 185.776 130.205 186.505 129.29 187.644C130.51 185.655 131.555 183.517 133.873 182.494C134.907 182.038 136.424 181.934 138.11 182.213Z" fill="#C4A867"/>
<path d="M116.23 176.063C116.84 176.763 117.574 177.39 118.038 178.176C119.544 180.719 120.407 183.492 120.635 186.459C119.887 182.685 118.114 179.385 115.931 176.272C116.031 176.201 116.129 176.133 116.23 176.063Z" fill="#C4A867"/>
<path d="M137.48 178.881C136.04 179.8 134.6 180.72 133.16 181.639C133.106 181.555 133.051 181.471 132.997 181.386C134.102 179.933 135.375 178.735 137.359 178.622C137.399 178.709 137.439 178.795 137.479 178.882L137.48 178.881Z" fill="#C4A867"/>
<path d="M129.964 184.52C130.446 183.455 130.955 182.324 131.465 181.194C131.591 181.231 131.717 181.27 131.841 181.307C131.724 181.802 131.69 182.339 131.468 182.783C131.134 183.449 130.667 184.05 130.254 184.677C130.237 184.705 130.184 184.724 130.153 184.72C130.125 184.716 130.104 184.673 129.964 184.521V184.52Z" fill="#C4A867"/>
<path d="M74.2444 53.2005C73.8884 52.4698 73.6009 51.6947 73.1591 51.0212C72.5356 50.0717 71.9078 49.0778 71.0856 48.3142C69.4296 46.7755 67.4663 46.9729 66.0048 48.7089C64.9924 49.9115 64.4018 51.3286 64.0815 52.863C63.4952 55.683 63.6453 58.4414 64.8208 61.0998C65.5386 62.7257 66.6183 64.067 68.0897 65.0795C68.2771 65.2082 68.4558 65.3483 68.5688 65.6586C68.2957 65.5857 68.0054 65.5499 67.7494 65.4355C65.4771 64.426 63.8655 62.7085 62.8388 60.4992C60.8082 56.1334 61.2801 51.8963 63.7669 47.8466C64.1129 47.2846 64.5891 46.7769 65.0896 46.3408C66.9529 44.7163 69.2495 44.7278 71.1013 46.3823C73.1176 48.1841 73.9341 50.5764 74.2459 53.2005H74.2444Z" fill="#C4A867"/>
</svg>
