<svg width="40" height="40" viewBox="0 0 40 40" fill="none" xmlns="http://www.w3.org/2000/svg">
<rect width="40" height="40" rx="8" fill="#FFEBE6"/>
<path d="M27.7445 31.1107H12.1889C8.85559 31.1107 8.85559 29.6107 8.85559 27.7774V26.6663C8.85559 26.0552 9.35559 25.5552 9.9667 25.5552H29.9667C30.5778 25.5552 31.0778 26.0552 31.0778 26.6663V27.7774C31.0778 29.6107 31.0778 31.1107 27.7445 31.1107Z" stroke="#DD6041" stroke-width="1.6" stroke-linecap="round" stroke-linejoin="round"/>
<path d="M29.6888 21.1106V25.555H10.2999V21.1106C10.2999 16.8439 13.311 13.2772 17.3221 12.4217C17.9221 12.2883 18.5444 12.2217 19.1888 12.2217H20.7999C21.4444 12.2217 22.0777 12.2883 22.6777 12.4217C26.6888 13.2883 29.6888 16.8439 29.6888 21.1106Z" stroke="#DD6041" stroke-width="1.6" stroke-linecap="round" stroke-linejoin="round"/>
<path d="M22.7777 11.6665C22.7777 11.9331 22.7444 12.1776 22.6777 12.422C22.0777 12.2887 21.4444 12.222 20.7999 12.222H19.1888C18.5444 12.222 17.9222 12.2887 17.3222 12.422C17.2555 12.1776 17.2222 11.9331 17.2222 11.6665C17.2222 10.1331 18.4666 8.88867 19.9999 8.88867C21.5333 8.88867 22.7777 10.1331 22.7777 11.6665Z" stroke="#DD6041" stroke-width="1.6" stroke-linecap="round" stroke-linejoin="round"/>
<path d="M23.3333 18.8887H16.6666" stroke="#DD6041" stroke-width="1.6" stroke-linecap="round" stroke-linejoin="round"/>
</svg>
