<svg width="24" height="24" viewBox="0 0 24 24" fill="none" xmlns="http://www.w3.org/2000/svg">
<path d="M10.4667 0.861084C11.4699 0.583551 12.5299 0.583565 13.5331 0.861084C14.1387 1.02861 14.6868 1.32463 15.2919 1.73999C15.8892 2.14999 16.5827 2.70543 17.4658 3.41187L19.4658 5.01245C20.5356 5.86834 21.1849 6.37943 21.6552 7.02808C22.0595 7.58573 22.3609 8.21172 22.5439 8.87573C22.7566 9.64815 22.7499 10.4745 22.7499 11.8445V16.9998C22.7499 20.1754 20.1756 22.7498 16.9999 22.7498C15.4812 22.7497 14.2499 21.5185 14.2499 19.9998V15.9998C14.2498 14.7572 13.2425 13.7498 11.9999 13.7498C10.7574 13.7498 9.75004 14.7572 9.74994 15.9998V19.9998C9.74994 21.5185 8.51872 22.7498 6.99994 22.7498C3.82432 22.7497 1.24994 20.1754 1.24994 16.9998V11.8445C1.24994 10.4745 1.24323 9.64814 1.45599 8.87573C1.63894 8.21171 1.94042 7.58573 2.34467 7.02808C2.81495 6.37941 3.46424 5.86835 4.53412 5.01245L6.53412 3.41187C7.41719 2.70541 8.11063 2.15 8.70795 1.73999C9.31312 1.32461 9.86119 1.02862 10.4667 0.861084Z" fill="#C4A867"/>
</svg>
