<svg width="24" height="24" viewBox="0 0 24 24" fill="none" xmlns="http://www.w3.org/2000/svg">
<path d="M10.4668 0.861328C11.47 0.583795 12.53 0.58381 13.5332 0.861328C14.1387 1.02886 14.6868 1.32487 15.292 1.74023C15.8893 2.15023 16.5828 2.70567 17.4658 3.41211L19.4658 5.0127C20.5357 5.86858 21.185 6.37968 21.6553 7.02832C22.0595 7.58597 22.361 8.21197 22.5439 8.87598C22.7567 9.64839 22.75 10.4748 22.75 11.8447V17C22.75 20.1756 20.1756 22.75 17 22.75C15.4812 22.75 14.25 21.5188 14.25 20V16C14.2499 14.7574 13.2426 13.75 12 13.75C10.7574 13.75 9.75011 14.7575 9.75 16V20C9.75 21.5188 8.51878 22.75 7 22.75C3.82438 22.75 1.25 20.1756 1.25 17V11.8447C1.25 10.4748 1.24329 9.64839 1.45605 8.87598C1.639 8.21196 1.94048 7.58598 2.34473 7.02832C2.81501 6.37966 3.4643 5.8686 4.53418 5.0127L6.53418 3.41211C7.41725 2.70565 8.11069 2.15024 8.70801 1.74023C9.31318 1.32485 9.86125 1.02886 10.4668 0.861328ZM13.1328 2.30664C12.3916 2.10168 11.6084 2.10167 10.8672 2.30664C10.4838 2.41271 10.0904 2.61018 9.55664 2.97656C9.01505 3.34832 8.37091 3.86382 7.4707 4.58398L5.4707 6.18359C4.33572 7.09158 3.88192 7.46319 3.55859 7.90918C3.25999 8.32123 3.03752 8.78382 2.90234 9.27441C2.75607 9.80546 2.75 10.3915 2.75 11.8447V17C2.75 19.3472 4.65281 21.25 7 21.25C7.69036 21.25 8.25 20.6904 8.25 20V16C8.25011 13.929 9.92902 12.25 12 12.25C14.071 12.25 15.7499 13.929 15.75 16V20C15.75 20.6903 16.3097 21.25 17 21.25C19.3472 21.25 21.25 19.3472 21.25 17V11.8447C21.25 10.3915 21.2439 9.80546 21.0977 9.27441C20.9625 8.78383 20.74 8.32122 20.4414 7.90918C20.1181 7.4632 19.6642 7.09155 18.5293 6.18359L16.5293 4.58398C15.6291 3.86384 14.9849 3.34831 14.4434 2.97656C13.9096 2.6102 13.5162 2.4127 13.1328 2.30664Z" fill="#676C72"/>
</svg>
