<svg width="24" height="24" viewBox="0 0 24 24" fill="none" xmlns="http://www.w3.org/2000/svg">
<g opacity="0.9">
<path d="M22.1116 12.693V20.9112C22.1116 21.5752 21.5755 22.1133 20.9139 22.1133H12.7254C12.0639 22.1133 11.5273 21.5752 11.5273 20.9112V13.4103H12.242C12.9036 13.4103 13.4401 12.8718 13.4401 12.2079V11.4906H16.4971C17.3604 9.301 19.4657 9.0865 19.4657 9.0865V11.4906H20.9139C21.5755 11.4906 22.1116 12.0291 22.1116 12.693Z" stroke="#676C72" stroke-width="1.5" stroke-miterlimit="10" stroke-linecap="round" stroke-linejoin="round"/>
<path d="M13.1556 3.77389V11.9921C13.1556 12.6561 12.619 13.1946 11.9575 13.1946H8.18581C7.3225 15.3841 5.21715 15.5986 5.21715 15.5986V13.1946H3.76898C3.10741 13.1946 2.57129 12.6561 2.57129 11.9921V3.77389C2.57129 3.10992 3.10741 2.57185 3.76898 2.57185H11.9575C12.619 2.57185 13.1556 3.10992 13.1556 3.77389Z" stroke="#676C72" stroke-width="1.5" stroke-miterlimit="10" stroke-linecap="round" stroke-linejoin="round"/>
<path d="M5.01367 6.64551H9.89872" stroke="#676C72" stroke-miterlimit="10" stroke-linecap="round" stroke-linejoin="round"/>
<path d="M8.27051 6.64551V5.01716" stroke="#676C72" stroke-miterlimit="10" stroke-linecap="round" stroke-linejoin="round"/>
<path d="M6.64209 6.64369C6.64209 9.90039 9.89879 9.90039 9.89879 9.90039" stroke="#676C72" stroke-miterlimit="10" stroke-linecap="round" stroke-linejoin="round"/>
<path d="M9.08454 6.64369C9.08454 9.90039 5.01367 9.90039 5.01367 9.90039" stroke="#676C72" stroke-miterlimit="10" stroke-linecap="round" stroke-linejoin="round"/>
<path d="M14.7842 19.6709L17.2267 14.7859L19.6692 19.6709" stroke="#676C72" stroke-miterlimit="10" stroke-linecap="round" stroke-linejoin="round"/>
<path d="M15.5981 18.041H18.8548" stroke="#676C72" stroke-miterlimit="10" stroke-linejoin="round"/>
<path d="M16.413 4.19894H17.0462C19.8441 4.19894 22.1122 6.38604 22.1122 9.08398" stroke="#676C72" stroke-width="1.5" stroke-miterlimit="10" stroke-linecap="round" stroke-linejoin="round"/>
<path d="M17.227 5.33887L15.5986 4.11763L17.227 2.89635" stroke="#676C72" stroke-miterlimit="10" stroke-linecap="round" stroke-linejoin="round"/>
<path d="M8.271 20.4886H7.63775C4.83989 20.4886 2.57178 18.3015 2.57178 15.6035" stroke="#676C72" stroke-width="1.5" stroke-miterlimit="10" stroke-linecap="round" stroke-linejoin="round"/>
<path d="M7.4571 19.3455L9.08545 20.5667L7.4571 21.788" stroke="#676C72" stroke-miterlimit="10" stroke-linecap="round" stroke-linejoin="round"/>
</g>
</svg>
