<svg width="40" height="40" viewBox="0 0 40 40" fill="none" xmlns="http://www.w3.org/2000/svg">
<rect width="40" height="40" rx="8" fill="#F9EBFF"/>
<path d="M8.88879 18.285C8.88879 15.8571 10.857 13.8889 13.2849 13.8889C13.9883 13.8889 14.624 13.4697 14.9011 12.8231L15.2452 12.0203C15.7704 10.7947 16.9756 10 18.309 10H19.9999H21.6908C23.0242 10 24.2294 10.7947 24.7546 12.0203L25.0987 12.8231C25.3758 13.4697 26.0115 13.8889 26.715 13.8889C29.1428 13.8889 31.111 15.8571 31.111 18.2849V23.8889C31.111 26.9571 28.6237 29.4444 25.5555 29.4444H14.4443C11.3761 29.4444 8.88879 26.9571 8.88879 23.8889V18.285Z" stroke="#8741A8" stroke-width="1.6"/>
<circle cx="3.33333" cy="3.33333" r="3.33333" transform="matrix(-1 0 0 1 23.3331 17.2217)" stroke="#8741A8" stroke-width="1.6"/>
</svg>
