<svg width="20" height="20" viewBox="0 0 20 20" fill="none" xmlns="http://www.w3.org/2000/svg">
<g opacity="0.7">
<path d="M11.9336 0.916992C13.0412 0.916992 13.9175 0.916068 14.6221 0.973633C15.3353 1.03193 15.9392 1.15379 16.4902 1.43457C17.3838 1.88998 18.1111 2.61711 18.5664 3.51074C18.847 4.06172 18.9681 4.66584 19.0264 5.37891C19.0839 6.08345 19.084 6.95992 19.084 8.06738V12.6436C19.084 13.3067 19.0862 13.7242 19.0186 14.1279C18.8994 14.8391 18.6198 15.5145 18.2012 16.1016C17.9634 16.4349 17.6664 16.7281 17.1973 17.1973C16.7281 17.6664 16.4349 17.9634 16.1016 18.2012C15.5145 18.6198 14.8391 18.8994 14.1279 19.0186C13.7242 19.0862 13.3067 19.084 12.6436 19.084H8.06738C6.95992 19.084 6.08345 19.0839 5.37891 19.0264C4.66584 18.9681 4.06172 18.847 3.51074 18.5664C2.61711 18.1111 1.88998 17.3838 1.43457 16.4902C1.15379 15.9392 1.03193 15.3353 0.973633 14.6221C0.916068 13.9175 0.916992 13.0412 0.916992 11.9336V8.06738C0.916992 6.95992 0.916103 6.08345 0.973633 5.37891C1.03191 4.66567 1.15386 4.06182 1.43457 3.51074C1.88997 2.61697 2.61697 1.88997 3.51074 1.43457C4.06182 1.15386 4.66567 1.03191 5.37891 0.973633C6.08345 0.916103 6.95992 0.916992 8.06738 0.916992H11.9336ZM8.06738 2.41699C6.93515 2.41699 6.1303 2.41736 5.50098 2.46875C4.88043 2.51945 4.49586 2.61639 4.19141 2.77148C3.58004 3.08305 3.08305 3.58004 2.77148 4.19141C2.61639 4.49586 2.51945 4.88043 2.46875 5.50098C2.41736 6.1303 2.41699 6.93515 2.41699 8.06738V11.9336C2.41699 13.0659 2.41733 13.8707 2.46875 14.5C2.51947 15.1203 2.61639 15.5052 2.77148 15.8096C3.08309 16.4207 3.58019 16.918 4.19141 17.2295C4.49582 17.3845 4.88061 17.4806 5.50098 17.5312C6.1303 17.5826 6.93515 17.584 8.06738 17.584H12.583V16.5332C12.583 15.986 12.582 15.5301 12.6123 15.1592C12.6433 14.7794 12.7111 14.4221 12.8828 14.085C13.1464 13.5677 13.5678 13.1474 14.085 12.8838C14.422 12.7121 14.7786 12.6443 15.1582 12.6133C15.5293 12.583 15.9857 12.584 16.5332 12.584H17.584V8.06738C17.584 6.93515 17.5826 6.1303 17.5312 5.50098C17.4806 4.88061 17.3845 4.49582 17.2295 4.19141C16.918 3.58019 16.4207 3.08309 15.8096 2.77148C15.5052 2.61639 15.1203 2.51947 14.5 2.46875C13.8707 2.41733 13.0659 2.41699 11.9336 2.41699H8.06738ZM16.5332 14.084C15.961 14.084 15.5761 14.0842 15.2803 14.1084C14.9937 14.1319 14.8561 14.1736 14.7656 14.2197C14.5306 14.3396 14.3395 14.5315 14.2197 14.7666C14.1737 14.8572 14.1308 14.9947 14.1074 15.2812C14.0833 15.577 14.083 15.9613 14.083 16.5332V17.4971C14.4947 17.4007 14.8852 17.2257 15.2305 16.9795C15.4386 16.831 15.6324 16.641 16.1367 16.1367C16.641 15.6324 16.831 15.4386 16.9795 15.2305C17.2255 14.8855 17.4006 14.4954 17.4971 14.084H16.5332ZM7.5 11.75C7.91406 11.7502 8.25 12.0859 8.25 12.5C8.25 12.9141 7.91406 13.2498 7.5 13.25H5.83301C5.41894 13.2498 5.08301 12.9141 5.08301 12.5C5.08301 12.0859 5.41894 11.7502 5.83301 11.75H7.5ZM10.833 8.41699C11.2472 8.41699 11.583 8.75278 11.583 9.16699C11.5828 9.58106 11.2471 9.91699 10.833 9.91699H5.83301C5.41905 9.91682 5.08318 9.58095 5.08301 9.16699C5.08301 8.75289 5.41894 8.41717 5.83301 8.41699H10.833ZM12.5 5.08301C12.914 5.08318 13.2498 5.41905 13.25 5.83301C13.25 6.24711 12.9141 6.58283 12.5 6.58301H5.83301C5.41894 6.58283 5.08301 6.24711 5.08301 5.83301C5.08318 5.41905 5.41905 5.08318 5.83301 5.08301H12.5Z" fill="#0C1A2C"/>
</g>
</svg>
