<svg width="24" height="24" viewBox="0 0 24 24" fill="none" xmlns="http://www.w3.org/2000/svg">
<path d="M12 1.25C13.8553 1.25 15.2969 1.24928 16.4473 1.35352C17.6079 1.45871 18.5457 1.67549 19.375 2.1543C20.4011 2.74673 21.2533 3.59887 21.8457 4.625C22.3245 5.45432 22.5413 6.39207 22.6465 7.55273C22.7507 8.70306 22.75 10.1447 22.75 12V15.25H20C19.0784 15.25 18.3113 15.2486 17.7051 15.3301C17.0775 15.4145 16.511 15.6003 16.0557 16.0557C15.6003 16.511 15.4145 17.0775 15.3301 17.7051C15.2486 18.3113 15.25 19.0784 15.25 20V22.749C15.2248 22.749 15.1988 22.75 15.1719 22.75H12C10.1447 22.75 8.70306 22.7507 7.55273 22.6465C6.39207 22.5413 5.45432 22.3245 4.625 21.8457C3.59887 21.2533 2.74673 20.4011 2.1543 19.375C1.67549 18.5457 1.45871 17.6079 1.35352 16.4473C1.24928 15.2969 1.25 13.8553 1.25 12C1.25 10.1447 1.24928 8.70306 1.35352 7.55273C1.45871 6.39207 1.67549 5.45432 2.1543 4.625C2.74673 3.59887 3.59887 2.74673 4.625 2.1543C5.45432 1.67549 6.39207 1.45871 7.55273 1.35352C8.70306 1.24928 10.1447 1.25 12 1.25ZM22.6357 16.75C22.41 17.9625 21.8553 19.0962 21.0244 20.0225C20.8991 20.1621 20.7628 20.2977 20.5303 20.5303C20.2977 20.7628 20.1621 20.8991 20.0225 21.0244C19.0962 21.8553 17.9624 22.409 16.75 22.6348V20C16.75 19.036 16.7515 18.3883 16.8164 17.9053C16.8785 17.4439 16.9859 17.2465 17.1162 17.1162C17.2465 16.9859 17.4439 16.8785 17.9053 16.8164C18.3883 16.7515 19.036 16.75 20 16.75H22.6357ZM8 15.25C7.58579 15.25 7.25 15.5858 7.25 16C7.25 16.4142 7.58579 16.75 8 16.75H10C10.4142 16.75 10.75 16.4142 10.75 16C10.75 15.5858 10.4142 15.25 10 15.25H8ZM8 11.25C7.58579 11.25 7.25 11.5858 7.25 12C7.25 12.4142 7.58579 12.75 8 12.75H14C14.4142 12.75 14.75 12.4142 14.75 12C14.75 11.5858 14.4142 11.25 14 11.25H8ZM8 7.25C7.58579 7.25 7.25 7.58579 7.25 8C7.25 8.41421 7.58579 8.75 8 8.75H16C16.4142 8.75 16.75 8.41421 16.75 8C16.75 7.58579 16.4142 7.25 16 7.25H8Z" fill="#C4A867"/>
</svg>
