<svg width="24" height="24" viewBox="0 0 24 24" fill="none" xmlns="http://www.w3.org/2000/svg">
<path d="M21.01 9V15.71C21.01 20.2 19 22 14.5 22" stroke="#C4A867" stroke-width="1.5" stroke-linecap="round" stroke-linejoin="round"/>
<path d="M3 14L3 8.5" stroke="#C4A867" stroke-width="1.5" stroke-linecap="round" stroke-linejoin="round"/>
<path d="M21.9745 8.2151L21.6945 5.5551C21.2945 2.6551 19.9745 1.4751 17.1545 1.4751H14.8945H13.4745H10.5545H9.12448H6.81448C3.99448 1.4751 2.68448 2.6551 2.27448 5.5851L2.01448 8.2251C1.91448 9.2551 2.19448 10.2551 2.80448 11.0351C3.53448 11.9851 4.65448 12.5251 5.90448 12.5251C7.11448 12.5251 8.27448 11.9151 9.00448 10.9451C9.65448 11.9151 10.7745 12.5251 12.0145 12.5251C13.2545 12.5251 14.3445 11.9451 15.0045 10.9851C15.7445 11.9351 16.8845 12.5251 18.0845 12.5251C19.3645 12.5251 20.5145 11.9551 21.2345 10.9551C21.8145 10.1851 22.0745 9.2151 21.9745 8.2151Z" fill="#C4A867"/>
<circle cx="7.44178" cy="16.0999" r="1.57154" fill="#C4A867" stroke="#C4A867" stroke-width="1.2" stroke-linecap="round" stroke-linejoin="round"/>
<path d="M3.59998 21.3996C3.59998 20.4055 4.40586 19.5996 5.39998 19.5996H9.48363C10.4777 19.5996 11.2836 20.4055 11.2836 21.3996C11.2836 22.0624 10.7464 22.5996 10.0836 22.5996H4.79998C4.13723 22.5996 3.59998 22.0624 3.59998 21.3996Z" fill="#C4A867" stroke="#C4A867" stroke-width="1.2" stroke-linecap="round" stroke-linejoin="round"/>
</svg>
