<svg width="20" height="20" viewBox="0 0 20 20" fill="none" xmlns="http://www.w3.org/2000/svg">
<g opacity="0.7">
<path d="M17.5085 9.34998V13.0916C17.5085 16.8333 15.8335 18.3333 12.0835 18.3333" stroke="#0C1A2C" stroke-width="1.25" stroke-linecap="round" stroke-linejoin="round"/>
<path d="M2.5 11.6666L2.5 9.16663" stroke="#0C1A2C" stroke-width="1.25" stroke-linecap="round" stroke-linejoin="round"/>
<path d="M10.0251 9.99996C11.5501 9.99996 12.6751 8.75834 12.5251 7.23334L11.9667 1.66663H8.07507L7.51675 7.23334C7.36675 8.75834 8.50009 9.99996 10.0251 9.99996Z" stroke="#0C1A2C" stroke-width="1.25" stroke-linecap="round" stroke-linejoin="round"/>
<path d="M15.2753 9.99996C16.9586 9.99996 18.1919 8.63327 18.0253 6.95827L17.7919 4.66661C17.4919 2.49994 16.6586 1.66663 14.4753 1.66663H11.9336L12.5169 7.5083C12.6669 8.8833 13.9003 9.99996 15.2753 9.99996Z" stroke="#0C1A2C" stroke-width="1.25" stroke-linecap="round" stroke-linejoin="round"/>
<path d="M4.72499 9.99996C6.09999 9.99996 7.34165 8.8833 7.47498 7.5083L7.65834 5.66667L8.05832 1.66663H5.51667C3.33333 1.66663 2.50002 2.49994 2.20002 4.66661L1.96666 6.95827C1.79999 8.63327 3.04166 9.99996 4.72499 9.99996Z" stroke="#0C1A2C" stroke-width="1.25" stroke-linecap="round" stroke-linejoin="round"/>
<circle cx="6.20171" cy="13.4168" r="1.30962" stroke="#0C1A2C" stroke-linecap="round" stroke-linejoin="round"/>
<path d="M3 17.8334C3 17.0049 3.67157 16.3334 4.5 16.3334H7.90305C8.73148 16.3334 9.40305 17.0049 9.40305 17.8334V17.8334C9.40305 18.3857 8.95533 18.8334 8.40305 18.8334H4C3.44772 18.8334 3 18.3857 3 17.8334V17.8334Z" stroke="#0C1A2C" stroke-linecap="round" stroke-linejoin="round"/>
</g>
</svg>
