<svg width="40" height="40" viewBox="0 0 40 40" fill="none" xmlns="http://www.w3.org/2000/svg">
<rect width="40" height="40" rx="9.2" fill="#E7EBFD"/>
<path d="M20.4727 7.41358L31.9727 12.0135C32.4199 12.1924 32.7777 12.7291 32.7777 13.2019V17.4441C32.7777 18.1469 32.2027 18.7219 31.4999 18.7219H8.49995C7.79717 18.7219 7.22217 18.1469 7.22217 17.4441V13.2019C7.22217 12.7291 7.57995 12.1924 8.02717 12.0135L19.5272 7.41358C19.7827 7.31136 20.2172 7.31136 20.4727 7.41358Z" stroke="#4160DD" stroke-width="1.84" stroke-miterlimit="10" stroke-linecap="round" stroke-linejoin="round"/>
<path d="M32.7777 32.7776H7.22217V28.9443C7.22217 28.2415 7.79717 27.6665 8.49995 27.6665H31.4999C32.2027 27.6665 32.7777 28.2415 32.7777 28.9443V32.7776Z" stroke="#4160DD" stroke-width="1.84" stroke-miterlimit="10" stroke-linecap="round" stroke-linejoin="round"/>
<path d="M9.77783 27.6661V18.7217" stroke="#4160DD" stroke-width="1.84" stroke-miterlimit="10" stroke-linecap="round" stroke-linejoin="round"/>
<path d="M14.8888 27.6661V18.7217" stroke="#4160DD" stroke-width="1.84" stroke-miterlimit="10" stroke-linecap="round" stroke-linejoin="round"/>
<path d="M20 27.6661V18.7217" stroke="#4160DD" stroke-width="1.84" stroke-miterlimit="10" stroke-linecap="round" stroke-linejoin="round"/>
<path d="M25.1111 27.6661V18.7217" stroke="#4160DD" stroke-width="1.84" stroke-miterlimit="10" stroke-linecap="round" stroke-linejoin="round"/>
<path d="M30.2222 27.6661V18.7217" stroke="#4160DD" stroke-width="1.84" stroke-miterlimit="10" stroke-linecap="round" stroke-linejoin="round"/>
<path d="M5.94446 32.7778H34.0556" stroke="#4160DD" stroke-width="1.84" stroke-miterlimit="10" stroke-linecap="round" stroke-linejoin="round"/>
<path d="M19.9999 15.5277C21.0585 15.5277 21.9166 14.6695 21.9166 13.611C21.9166 12.5525 21.0585 11.6943 19.9999 11.6943C18.9414 11.6943 18.0833 12.5525 18.0833 13.611C18.0833 14.6695 18.9414 15.5277 19.9999 15.5277Z" stroke="#4160DD" stroke-width="1.84" stroke-miterlimit="10" stroke-linecap="round" stroke-linejoin="round"/>
</svg>
